G04*
G04 #@! TF.GenerationSoftware,Altium Limited,Altium Designer,18.0.7 (293)*
G04*
G04 Layer_Physical_Order=2*
G04 Layer_Color=16711680*
%FSLAX25Y25*%
%MOIN*%
G70*
G01*
G75*
%ADD10R,0.03937X0.05500*%
%ADD11R,0.02362X0.06102*%
%ADD12R,0.06500X0.05000*%
%ADD13R,0.05500X0.03937*%
%ADD14R,0.08000X0.09055*%
%ADD15R,0.03937X0.03937*%
%ADD16C,0.02000*%
%ADD17C,0.03500*%
%ADD18C,0.06000*%
%ADD19C,0.05000*%
%ADD20C,0.04000*%
%ADD21C,0.03000*%
%ADD22C,0.09843*%
%ADD23R,0.06000X0.09000*%
%ADD24O,0.06000X0.09000*%
%ADD25O,0.07000X0.10000*%
%ADD26R,0.07000X0.10000*%
%ADD27C,0.07000*%
%ADD28O,0.06142X0.09843*%
%ADD29R,0.06142X0.09843*%
%ADD30C,0.07087*%
%ADD31R,0.07087X0.07087*%
%ADD32R,0.09843X0.09843*%
%ADD33R,0.09843X0.09843*%
%ADD34C,0.13780*%
%ADD35C,0.07500*%
%ADD36C,0.23622*%
%ADD37O,0.09843X0.07087*%
%ADD38R,0.09843X0.07087*%
%ADD39O,0.10000X0.07000*%
%ADD40R,0.10000X0.07000*%
%ADD41O,0.08661X0.11811*%
%ADD42O,0.04724X0.07087*%
%ADD43O,0.06142X0.09843*%
%ADD44R,0.06142X0.09843*%
%ADD45O,0.07500X0.09000*%
%ADD46R,0.07500X0.09000*%
G36*
X431541Y1529D02*
X1529D01*
X1529Y431541D01*
X431541D01*
Y1529D01*
D02*
G37*
%LPC*%
G36*
X384195Y426022D02*
X381124D01*
Y421101D01*
X384195D01*
Y426022D01*
D02*
G37*
G36*
X379124D02*
X376054D01*
Y421101D01*
X379124D01*
Y426022D01*
D02*
G37*
G36*
X414386Y426158D02*
Y414386D01*
X426158D01*
X426078Y415396D01*
X425607Y417357D01*
X424836Y419220D01*
X423782Y420939D01*
X422473Y422473D01*
X420939Y423782D01*
X419220Y424836D01*
X417357Y425607D01*
X415396Y426078D01*
X414386Y426158D01*
D02*
G37*
G36*
X412386D02*
X411376Y426078D01*
X409415Y425607D01*
X407552Y424836D01*
X405832Y423782D01*
X404299Y422473D01*
X402989Y420939D01*
X401936Y419220D01*
X401164Y417357D01*
X400693Y415396D01*
X400614Y414386D01*
X412386D01*
Y426158D01*
D02*
G37*
G36*
X20685D02*
Y414386D01*
X32457D01*
X32377Y415396D01*
X31907Y417357D01*
X31135Y419220D01*
X30081Y420939D01*
X28772Y422473D01*
X27239Y423782D01*
X25519Y424836D01*
X23656Y425607D01*
X21695Y426078D01*
X20685Y426158D01*
D02*
G37*
G36*
X18685D02*
X17675Y426078D01*
X15714Y425607D01*
X13851Y424836D01*
X12132Y423782D01*
X10598Y422473D01*
X9289Y420939D01*
X8235Y419220D01*
X7463Y417357D01*
X6993Y415396D01*
X6913Y414386D01*
X18685D01*
Y426158D01*
D02*
G37*
G36*
X384195Y419101D02*
X381124D01*
Y414180D01*
X384195D01*
Y419101D01*
D02*
G37*
G36*
X379124D02*
X376054D01*
Y414180D01*
X379124D01*
Y419101D01*
D02*
G37*
G36*
X350124Y426058D02*
X349062Y425918D01*
X348071Y425507D01*
X347221Y424855D01*
X346568Y424005D01*
X346158Y423014D01*
X346018Y421952D01*
Y418251D01*
X346158Y417188D01*
X346568Y416198D01*
X347221Y415347D01*
X347981Y414764D01*
X348009Y414257D01*
X348005Y414227D01*
X347154Y413376D01*
X342609D01*
X342352Y413563D01*
X342164Y413822D01*
Y414689D01*
X342177Y414695D01*
X343028Y415347D01*
X343680Y416198D01*
X344091Y417188D01*
X344230Y418251D01*
Y421952D01*
X344091Y423014D01*
X343680Y424005D01*
X343028Y424855D01*
X342177Y425507D01*
X341187Y425918D01*
X340124Y426058D01*
X339062Y425918D01*
X338071Y425507D01*
X337221Y424855D01*
X336568Y424005D01*
X336158Y423014D01*
X336018Y421952D01*
Y418251D01*
X336158Y417188D01*
X336568Y416198D01*
X337221Y415347D01*
X337781Y414918D01*
X337825Y414283D01*
X337312Y413770D01*
X334613D01*
X334613Y413770D01*
X333833Y413615D01*
X333171Y413173D01*
X332601Y412602D01*
X332164Y412872D01*
Y414689D01*
X332177Y414695D01*
X333028Y415347D01*
X333680Y416198D01*
X334090Y417188D01*
X334230Y418251D01*
Y421952D01*
X334090Y423014D01*
X333680Y424005D01*
X333028Y424855D01*
X332177Y425507D01*
X331187Y425918D01*
X330124Y426058D01*
X329062Y425918D01*
X328071Y425507D01*
X327221Y424855D01*
X326569Y424005D01*
X326158Y423014D01*
X326018Y421952D01*
Y418251D01*
X326158Y417188D01*
X326569Y416198D01*
X327221Y415347D01*
X328071Y414695D01*
X328085Y414689D01*
Y413599D01*
X323742Y409255D01*
X323300Y408593D01*
X323144Y407813D01*
Y405845D01*
X323002D01*
Y397743D01*
X327365D01*
Y405845D01*
X327223D01*
Y406968D01*
X327654Y407400D01*
X327860Y407358D01*
X328144Y407183D01*
Y405845D01*
X328002D01*
Y397743D01*
X332365D01*
Y405845D01*
X332223D01*
Y406457D01*
X332644Y406878D01*
X333144Y406671D01*
Y405845D01*
X333002D01*
Y397743D01*
X337365D01*
Y405583D01*
X337684Y405775D01*
X338002Y405583D01*
Y397743D01*
X342365D01*
Y405845D01*
X340263D01*
X340181Y406106D01*
X340180Y406345D01*
X340779Y406746D01*
X343332Y409298D01*
X347999D01*
X348779Y409453D01*
X349441Y409895D01*
X351566Y412021D01*
X351566Y412021D01*
X352008Y412682D01*
X352164Y413463D01*
X352164Y413463D01*
Y414689D01*
X352177Y414695D01*
X353028Y415347D01*
X353680Y416198D01*
X354090Y417188D01*
X354230Y418251D01*
Y421952D01*
X354090Y423014D01*
X353680Y424005D01*
X353028Y424855D01*
X352177Y425507D01*
X351187Y425918D01*
X350124Y426058D01*
D02*
G37*
G36*
X119363Y411916D02*
X115703D01*
X115735Y411676D01*
X116214Y410521D01*
X116975Y409528D01*
X117967Y408767D01*
X119123Y408288D01*
X119363Y408257D01*
Y411916D01*
D02*
G37*
G36*
X125022D02*
X121363D01*
Y408257D01*
X121603Y408288D01*
X122758Y408767D01*
X123750Y409528D01*
X124512Y410521D01*
X124990Y411676D01*
X125022Y411916D01*
D02*
G37*
G36*
X352365Y405845D02*
X351184D01*
Y402794D01*
X352365D01*
Y405845D01*
D02*
G37*
G36*
X297247D02*
X296065D01*
Y402794D01*
X297247D01*
Y405845D01*
D02*
G37*
G36*
X349184D02*
X348002D01*
Y402794D01*
X349184D01*
Y405845D01*
D02*
G37*
G36*
X294065D02*
X292884D01*
Y402794D01*
X294065D01*
Y405845D01*
D02*
G37*
G36*
X381124Y406323D02*
Y401416D01*
X384663D01*
Y401916D01*
X384509Y403091D01*
X384055Y404185D01*
X383334Y405126D01*
X382394Y405847D01*
X381299Y406300D01*
X381124Y406323D01*
D02*
G37*
G36*
X379124D02*
X378950Y406300D01*
X377855Y405847D01*
X376915Y405126D01*
X376194Y404185D01*
X375740Y403091D01*
X375586Y401916D01*
Y401416D01*
X379124D01*
Y406323D01*
D02*
G37*
G36*
X426158Y412386D02*
X414386D01*
Y400614D01*
X415396Y400693D01*
X417357Y401164D01*
X419220Y401936D01*
X420939Y402989D01*
X422473Y404299D01*
X423782Y405832D01*
X424836Y407552D01*
X425607Y409415D01*
X426078Y411376D01*
X426158Y412386D01*
D02*
G37*
G36*
X412386D02*
X400614D01*
X400693Y411376D01*
X401164Y409415D01*
X401936Y407552D01*
X402989Y405832D01*
X404299Y404299D01*
X405832Y402989D01*
X407552Y401936D01*
X409415Y401164D01*
X411376Y400693D01*
X412386Y400614D01*
Y412386D01*
D02*
G37*
G36*
X32457D02*
X20685D01*
Y400614D01*
X21695Y400693D01*
X23656Y401164D01*
X25519Y401936D01*
X27239Y402989D01*
X28772Y404299D01*
X30081Y405832D01*
X31135Y407552D01*
X31907Y409415D01*
X32377Y411376D01*
X32457Y412386D01*
D02*
G37*
G36*
X18685D02*
X6913D01*
X6993Y411376D01*
X7463Y409415D01*
X8235Y407552D01*
X9289Y405832D01*
X10598Y404299D01*
X12132Y402989D01*
X13851Y401936D01*
X15714Y401164D01*
X17675Y400693D01*
X18685Y400614D01*
Y412386D01*
D02*
G37*
G36*
X320124Y426058D02*
X319062Y425918D01*
X318071Y425507D01*
X317221Y424855D01*
X316568Y424005D01*
X316158Y423014D01*
X316018Y421952D01*
Y418251D01*
X316158Y417188D01*
X316568Y416198D01*
X317221Y415347D01*
X318071Y414695D01*
X318144Y414665D01*
Y405845D01*
X318002D01*
Y397743D01*
X322365D01*
Y405845D01*
X322223D01*
Y414730D01*
X323028Y415347D01*
X323680Y416198D01*
X324091Y417188D01*
X324230Y418251D01*
Y421952D01*
X324091Y423014D01*
X323680Y424005D01*
X323028Y424855D01*
X322177Y425507D01*
X321187Y425918D01*
X320124Y426058D01*
D02*
G37*
G36*
X310124D02*
X309062Y425918D01*
X308071Y425507D01*
X307221Y424855D01*
X306569Y424005D01*
X306158Y423014D01*
X306018Y421952D01*
Y418251D01*
X306158Y417188D01*
X306569Y416198D01*
X307221Y415347D01*
X308071Y414695D01*
X308085Y414689D01*
Y412991D01*
X308241Y412211D01*
X308682Y411550D01*
X313144Y407088D01*
Y405845D01*
X313002D01*
Y397743D01*
X317365D01*
Y405845D01*
X317223D01*
Y407932D01*
X317067Y408713D01*
X316625Y409374D01*
X312164Y413836D01*
Y414689D01*
X312177Y414695D01*
X313028Y415347D01*
X313680Y416198D01*
X314090Y417188D01*
X314230Y418251D01*
Y421952D01*
X314090Y423014D01*
X313680Y424005D01*
X313028Y424855D01*
X312177Y425507D01*
X311187Y425918D01*
X310124Y426058D01*
D02*
G37*
G36*
X360124D02*
X359062Y425918D01*
X358071Y425507D01*
X357221Y424855D01*
X356569Y424005D01*
X356158Y423014D01*
X356018Y421952D01*
Y418251D01*
X356158Y417188D01*
X356569Y416198D01*
X357221Y415347D01*
X358071Y414695D01*
X358085Y414689D01*
Y400287D01*
X355422Y397624D01*
X352816D01*
X352365Y397743D01*
X352365Y398125D01*
Y400794D01*
X350184D01*
X348002D01*
Y398872D01*
X347502Y398604D01*
X347365Y398696D01*
Y405845D01*
X343002D01*
Y397743D01*
X343144D01*
Y397647D01*
X343300Y396867D01*
X343742Y396205D01*
X345804Y394143D01*
X346465Y393701D01*
X347246Y393546D01*
X347246Y393546D01*
X356267D01*
X357047Y393701D01*
X357709Y394143D01*
X361566Y398001D01*
X362008Y398662D01*
X362164Y399443D01*
X362164Y399443D01*
Y414689D01*
X362177Y414695D01*
X363028Y415347D01*
X363680Y416198D01*
X364090Y417188D01*
X364230Y418251D01*
Y421952D01*
X364090Y423014D01*
X363680Y424005D01*
X363028Y424855D01*
X362177Y425507D01*
X361187Y425918D01*
X360124Y426058D01*
D02*
G37*
G36*
X384663Y399416D02*
X381124D01*
Y394509D01*
X381299Y394532D01*
X382394Y394985D01*
X383334Y395707D01*
X384055Y396647D01*
X384509Y397741D01*
X384663Y398916D01*
Y399416D01*
D02*
G37*
G36*
X379124D02*
X375586D01*
Y398916D01*
X375740Y397741D01*
X376194Y396647D01*
X376915Y395707D01*
X377855Y394985D01*
X378950Y394532D01*
X379124Y394509D01*
Y399416D01*
D02*
G37*
G36*
X370124Y426058D02*
X369062Y425918D01*
X368071Y425507D01*
X367221Y424855D01*
X366568Y424005D01*
X366158Y423014D01*
X366018Y421952D01*
Y418251D01*
X366158Y417188D01*
X366568Y416198D01*
X367221Y415347D01*
X367351Y415248D01*
Y406416D01*
X365624D01*
Y394416D01*
X367351D01*
Y388212D01*
X366915Y387877D01*
X366581Y387442D01*
X362948D01*
X358744Y391645D01*
X358170Y392086D01*
X357501Y392363D01*
X356783Y392457D01*
X263747D01*
X263029Y392363D01*
X262360Y392086D01*
X261786Y391645D01*
X258105Y387964D01*
X258102Y387964D01*
X257605Y388134D01*
Y389988D01*
X257450Y390768D01*
X257007Y391429D01*
X255353Y393084D01*
X255544Y393546D01*
X258003D01*
X258784Y393701D01*
X259445Y394143D01*
X261507Y396205D01*
X261949Y396867D01*
X262037Y397308D01*
X262246Y397743D01*
X262246Y397743D01*
X262246Y397743D01*
Y405798D01*
X262246Y405845D01*
X262308Y406088D01*
X262504D01*
X262884Y405613D01*
Y397743D01*
X263026D01*
Y397647D01*
X263181Y396867D01*
X263623Y396205D01*
X265686Y394143D01*
X266347Y393701D01*
X267127Y393546D01*
X267127Y393546D01*
X297212D01*
X297992Y393701D01*
X298654Y394143D01*
X301566Y397056D01*
X301566Y397056D01*
X302008Y397717D01*
X302164Y398498D01*
Y414689D01*
X302177Y414695D01*
X303028Y415347D01*
X303680Y416198D01*
X304090Y417188D01*
X304230Y418251D01*
Y421952D01*
X304090Y423014D01*
X303680Y424005D01*
X303028Y424855D01*
X302177Y425507D01*
X301187Y425918D01*
X300124Y426058D01*
X299062Y425918D01*
X298071Y425507D01*
X297221Y424855D01*
X296568Y424005D01*
X296158Y423014D01*
X296018Y421952D01*
Y418251D01*
X296158Y417188D01*
X296568Y416198D01*
X297221Y415347D01*
X298071Y414695D01*
X298085Y414689D01*
Y399342D01*
X297708Y398966D01*
X297247Y399157D01*
Y400794D01*
X295065D01*
Y401794D01*
D01*
Y400794D01*
X292884D01*
Y398149D01*
X292565Y397963D01*
X292247Y398149D01*
Y405845D01*
X292105D01*
Y414665D01*
X292177Y414695D01*
X293028Y415347D01*
X293680Y416198D01*
X294091Y417188D01*
X294230Y418251D01*
Y421952D01*
X294091Y423014D01*
X293680Y424005D01*
X293028Y424855D01*
X292177Y425507D01*
X291187Y425918D01*
X290124Y426058D01*
X289062Y425918D01*
X288071Y425507D01*
X287221Y424855D01*
X286568Y424005D01*
X286158Y423014D01*
X286018Y421952D01*
Y418251D01*
X286158Y417188D01*
X286568Y416198D01*
X287221Y415347D01*
X288026Y414730D01*
Y405845D01*
X287884D01*
Y398149D01*
X287565Y397963D01*
X287246Y398149D01*
Y405845D01*
X287105D01*
Y407813D01*
X286949Y408593D01*
X286507Y409255D01*
X286507Y409255D01*
X282164Y413599D01*
Y414689D01*
X282177Y414695D01*
X283028Y415347D01*
X283680Y416198D01*
X284090Y417188D01*
X284230Y418251D01*
Y421952D01*
X284090Y423014D01*
X283680Y424005D01*
X283028Y424855D01*
X282177Y425507D01*
X281187Y425918D01*
X280124Y426058D01*
X279062Y425918D01*
X278071Y425507D01*
X277221Y424855D01*
X276569Y424005D01*
X276158Y423014D01*
X276018Y421952D01*
Y418251D01*
X276158Y417188D01*
X276569Y416198D01*
X277221Y415347D01*
X278071Y414695D01*
X278085Y414689D01*
Y412795D01*
X277991Y412715D01*
X277614Y412559D01*
X276606Y413567D01*
X275945Y414009D01*
X275164Y414164D01*
X273253D01*
X272754Y414663D01*
X272786Y415162D01*
X273028Y415347D01*
X273680Y416198D01*
X274091Y417188D01*
X274230Y418251D01*
Y421952D01*
X274091Y423014D01*
X273680Y424005D01*
X273028Y424855D01*
X272177Y425507D01*
X271187Y425918D01*
X270124Y426058D01*
X269062Y425918D01*
X268071Y425507D01*
X267221Y424855D01*
X266568Y424005D01*
X266158Y423014D01*
X266018Y421952D01*
Y418251D01*
X266158Y417188D01*
X266568Y416198D01*
X267221Y415347D01*
X268071Y414695D01*
X268085Y414689D01*
Y414409D01*
X268191Y413876D01*
X267853Y413376D01*
X263094D01*
X262244Y414227D01*
X262239Y414257D01*
X262268Y414764D01*
X263028Y415347D01*
X263680Y416198D01*
X264090Y417188D01*
X264230Y418251D01*
Y421952D01*
X264090Y423014D01*
X263680Y424005D01*
X263028Y424855D01*
X262177Y425507D01*
X261187Y425918D01*
X260124Y426058D01*
X259062Y425918D01*
X258071Y425507D01*
X257221Y424855D01*
X256569Y424005D01*
X256158Y423014D01*
X256018Y421952D01*
Y418251D01*
X256158Y417188D01*
X256569Y416198D01*
X257221Y415347D01*
X258071Y414695D01*
X258085Y414689D01*
Y413463D01*
X258159Y413089D01*
X257749Y412589D01*
X253962D01*
X252324Y414227D01*
X252304Y414291D01*
X252335Y414816D01*
X253028Y415347D01*
X253680Y416198D01*
X254090Y417188D01*
X254230Y418251D01*
Y421952D01*
X254090Y423014D01*
X253680Y424005D01*
X253028Y424855D01*
X252177Y425507D01*
X251187Y425918D01*
X250124Y426058D01*
X249062Y425918D01*
X248071Y425507D01*
X247221Y424855D01*
X246568Y424005D01*
X246158Y423014D01*
X246018Y421952D01*
Y418251D01*
X246158Y417188D01*
X246568Y416198D01*
X247221Y415347D01*
X248071Y414695D01*
X248085Y414689D01*
Y413543D01*
X248240Y412762D01*
X248682Y412101D01*
X251675Y409108D01*
X251675Y409108D01*
X252337Y408666D01*
X253117Y408511D01*
X253117Y408511D01*
X257950D01*
X259565Y406895D01*
X260227Y406453D01*
X260770Y406345D01*
X260720Y405845D01*
X257884D01*
Y398350D01*
X257159Y397624D01*
X245548D01*
X242164Y401009D01*
Y414689D01*
X242177Y414695D01*
X243028Y415347D01*
X243680Y416198D01*
X244091Y417188D01*
X244230Y418251D01*
Y421952D01*
X244091Y423014D01*
X243680Y424005D01*
X243028Y424855D01*
X242177Y425507D01*
X241187Y425918D01*
X240124Y426058D01*
X239062Y425918D01*
X238071Y425507D01*
X237221Y424855D01*
X236568Y424005D01*
X236158Y423014D01*
X236018Y421952D01*
Y418251D01*
X236158Y417188D01*
X236568Y416198D01*
X237221Y415347D01*
X238071Y414695D01*
X238085Y414689D01*
Y400699D01*
X237701Y400384D01*
X235064D01*
X232164Y403285D01*
Y414689D01*
X232177Y414695D01*
X233028Y415347D01*
X233680Y416198D01*
X234090Y417188D01*
X234230Y418251D01*
Y421952D01*
X234090Y423014D01*
X233680Y424005D01*
X233028Y424855D01*
X232177Y425507D01*
X231187Y425918D01*
X230124Y426058D01*
X229062Y425918D01*
X228071Y425507D01*
X227221Y424855D01*
X226569Y424005D01*
X226158Y423014D01*
X226018Y421952D01*
Y418251D01*
X226158Y417188D01*
X226569Y416198D01*
X227221Y415347D01*
X228071Y414695D01*
X228085Y414689D01*
Y402440D01*
X228240Y401660D01*
X228682Y400998D01*
X232778Y396903D01*
X233439Y396461D01*
X234220Y396306D01*
X236857D01*
X242327Y390835D01*
X242989Y390393D01*
X243769Y390238D01*
X243769Y390238D01*
X252431D01*
X253526Y389143D01*
Y373458D01*
X252597D01*
Y365957D01*
X257516D01*
Y364881D01*
X255565D01*
Y361654D01*
X171696D01*
X164556Y368794D01*
X163982Y369235D01*
X163313Y369512D01*
X162595Y369606D01*
X154332D01*
Y370583D01*
X153402D01*
Y374986D01*
X153312Y375440D01*
X153766Y375722D01*
X154467Y375184D01*
X155623Y374705D01*
X155863Y374673D01*
Y379333D01*
Y383992D01*
X155623Y383960D01*
X154467Y383482D01*
X153475Y382720D01*
X152902Y381974D01*
X152402Y382143D01*
Y414242D01*
X152247Y415022D01*
X151805Y415684D01*
X145848Y421640D01*
X145186Y422083D01*
X144406Y422238D01*
X114193D01*
X113413Y422083D01*
X112752Y421640D01*
X110363Y419252D01*
X107974Y421640D01*
X107312Y422083D01*
X106532Y422238D01*
X84820D01*
X84039Y422083D01*
X83378Y421640D01*
X77421Y415684D01*
X76979Y415022D01*
X76824Y414242D01*
Y375986D01*
X76979Y375206D01*
X77421Y374544D01*
X77824Y374141D01*
Y370583D01*
X76894D01*
Y363083D01*
X82832D01*
Y370583D01*
X81902D01*
Y374986D01*
X81812Y375440D01*
X82266Y375722D01*
X82967Y375184D01*
X84123Y374705D01*
X84363Y374673D01*
Y379333D01*
Y383992D01*
X84123Y383960D01*
X82967Y383482D01*
X81975Y382720D01*
X81402Y381974D01*
X80902Y382143D01*
Y413397D01*
X85664Y418159D01*
X99968D01*
X100001Y417659D01*
X99123Y417544D01*
X97967Y417065D01*
X96975Y416304D01*
X96214Y415312D01*
X95735Y414156D01*
X95572Y412916D01*
X95735Y411676D01*
X96214Y410521D01*
X96975Y409528D01*
X97967Y408767D01*
X98324Y408619D01*
Y400416D01*
Y392213D01*
X97967Y392065D01*
X96975Y391304D01*
X96214Y390312D01*
X95735Y389156D01*
X95572Y387916D01*
X95735Y386676D01*
X96214Y385521D01*
X96975Y384528D01*
X97967Y383767D01*
X98324Y383619D01*
Y375149D01*
X98479Y374368D01*
X98921Y373707D01*
X108469Y364159D01*
Y336268D01*
X102902D01*
Y340979D01*
X103751Y341630D01*
X104512Y342622D01*
X104990Y343778D01*
X105154Y345018D01*
X104990Y346258D01*
X104512Y347413D01*
X103751Y348405D01*
X102758Y349167D01*
X101603Y349645D01*
X100363Y349809D01*
X99123Y349645D01*
X97967Y349167D01*
X96975Y348405D01*
X96214Y347413D01*
X95735Y346258D01*
X95572Y345018D01*
X95735Y343778D01*
X96214Y342622D01*
X96975Y341630D01*
X97967Y340868D01*
X98824Y340514D01*
Y332518D01*
Y324521D01*
X97967Y324167D01*
X96975Y323405D01*
X96214Y322413D01*
X95735Y321258D01*
X95572Y320018D01*
X95735Y318778D01*
X96214Y317622D01*
X96975Y316630D01*
X97967Y315868D01*
X98824Y315514D01*
Y310637D01*
X98979Y309857D01*
X99421Y309195D01*
X101115Y307501D01*
X100924Y307039D01*
X81862D01*
X67402Y321499D01*
Y350036D01*
X67758Y350184D01*
X68751Y350945D01*
X69512Y351937D01*
X69990Y353093D01*
X70154Y354333D01*
X69990Y355573D01*
X69512Y356728D01*
X68751Y357720D01*
X67758Y358482D01*
X67402Y358629D01*
Y363064D01*
X67895Y363083D01*
Y363083D01*
X73831D01*
Y370583D01*
X67895D01*
Y370583D01*
X67402Y370601D01*
Y375036D01*
X67758Y375184D01*
X68751Y375945D01*
X69512Y376937D01*
X69990Y378093D01*
X70154Y379333D01*
X69990Y380573D01*
X69512Y381728D01*
X68751Y382720D01*
X67758Y383482D01*
X66603Y383960D01*
X65363Y384124D01*
X64123Y383960D01*
X62967Y383482D01*
X61975Y382720D01*
X61214Y381728D01*
X60735Y380573D01*
X60572Y379333D01*
X60735Y378093D01*
X61214Y376937D01*
X61975Y375945D01*
X62967Y375184D01*
X63324Y375036D01*
Y366833D01*
Y358629D01*
X62967Y358482D01*
X61975Y357720D01*
X61214Y356728D01*
X60735Y355573D01*
X60572Y354333D01*
X60735Y353093D01*
X61214Y351937D01*
X61975Y350945D01*
X62967Y350184D01*
X63324Y350036D01*
Y320655D01*
X63479Y319874D01*
X63921Y319213D01*
X79576Y303558D01*
X80237Y303116D01*
X81018Y302961D01*
X123004D01*
X125080Y300885D01*
Y300261D01*
X125066Y300255D01*
X124216Y299603D01*
X123563Y298752D01*
X123153Y297762D01*
X123013Y296699D01*
Y292998D01*
X123153Y291936D01*
X123563Y290945D01*
X124216Y290095D01*
X125066Y289442D01*
X126057Y289032D01*
X127119Y288892D01*
X128182Y289032D01*
X129172Y289442D01*
X130023Y290095D01*
X130675Y290945D01*
X131085Y291936D01*
X131225Y292998D01*
Y296699D01*
X131085Y297762D01*
X130675Y298752D01*
X130023Y299603D01*
X129172Y300255D01*
X129158Y300261D01*
Y301729D01*
X129013Y302461D01*
X129038Y302597D01*
X129232Y302961D01*
X133004D01*
X135080Y300885D01*
Y300261D01*
X135066Y300255D01*
X134216Y299603D01*
X133563Y298752D01*
X133153Y297762D01*
X133013Y296699D01*
Y292998D01*
X133153Y291936D01*
X133563Y290945D01*
X134216Y290095D01*
X135066Y289442D01*
X136057Y289032D01*
X137119Y288892D01*
X138182Y289032D01*
X139172Y289442D01*
X140023Y290095D01*
X140675Y290945D01*
X141085Y291936D01*
X141225Y292998D01*
Y296699D01*
X141085Y297762D01*
X140675Y298752D01*
X140023Y299603D01*
X139172Y300255D01*
X139158Y300261D01*
Y301729D01*
X139013Y302461D01*
X139038Y302597D01*
X139232Y302961D01*
X143004D01*
X145080Y300885D01*
Y300261D01*
X145066Y300255D01*
X144216Y299603D01*
X143563Y298752D01*
X143153Y297762D01*
X143013Y296699D01*
Y292998D01*
X143153Y291936D01*
X143563Y290945D01*
X144216Y290095D01*
X145066Y289442D01*
X146057Y289032D01*
X147119Y288892D01*
X148182Y289032D01*
X149172Y289442D01*
X150023Y290095D01*
X150675Y290945D01*
X151085Y291936D01*
X151225Y292998D01*
Y296699D01*
X151085Y297762D01*
X150675Y298752D01*
X150023Y299603D01*
X149172Y300255D01*
X149159Y300261D01*
Y301729D01*
X149013Y302461D01*
X149038Y302597D01*
X149232Y302961D01*
X153004D01*
X155080Y300885D01*
Y300261D01*
X155066Y300255D01*
X154216Y299603D01*
X153563Y298752D01*
X153153Y297762D01*
X153013Y296699D01*
Y292998D01*
X153153Y291936D01*
X153563Y290945D01*
X154216Y290095D01*
X155066Y289442D01*
X156057Y289032D01*
X157119Y288892D01*
X158182Y289032D01*
X159172Y289442D01*
X160023Y290095D01*
X160675Y290945D01*
X161085Y291936D01*
X161225Y292998D01*
Y296699D01*
X161085Y297762D01*
X160675Y298752D01*
X160023Y299603D01*
X159172Y300255D01*
X159159Y300261D01*
Y301729D01*
X159003Y302510D01*
X158561Y303171D01*
X155291Y306442D01*
X154629Y306884D01*
X153849Y307039D01*
X148936D01*
X146533Y309442D01*
X145872Y309884D01*
X145091Y310039D01*
X140179D01*
X138902Y311316D01*
Y350036D01*
X139258Y350184D01*
X140251Y350945D01*
X141012Y351937D01*
X141490Y353093D01*
X141654Y354333D01*
X141490Y355573D01*
X141012Y356728D01*
X140251Y357720D01*
X139258Y358482D01*
X138902Y358629D01*
Y363064D01*
X139394Y363083D01*
Y363083D01*
X145332D01*
Y370583D01*
X139394D01*
Y370583D01*
X138902Y370601D01*
Y375036D01*
X139258Y375184D01*
X140251Y375945D01*
X141012Y376937D01*
X141490Y378093D01*
X141654Y379333D01*
X141490Y380573D01*
X141012Y381728D01*
X140251Y382720D01*
X139258Y383482D01*
X138103Y383960D01*
X136863Y384124D01*
X135623Y383960D01*
X134467Y383482D01*
X133475Y382720D01*
X132714Y381728D01*
X132235Y380573D01*
X132072Y379333D01*
X132235Y378093D01*
X132714Y376937D01*
X133475Y375945D01*
X134467Y375184D01*
X134824Y375036D01*
Y366176D01*
Y358629D01*
X134467Y358482D01*
X133475Y357720D01*
X132714Y356728D01*
X132235Y355573D01*
X132072Y354333D01*
X132235Y353093D01*
X132714Y351937D01*
X133475Y350945D01*
X134467Y350184D01*
X134824Y350036D01*
Y310471D01*
X134833Y310426D01*
X134516Y310039D01*
X130179D01*
X127776Y312442D01*
X127114Y312884D01*
X126334Y313039D01*
X114345D01*
X112547Y314837D01*
Y328768D01*
X117832D01*
Y336268D01*
X116902D01*
Y340671D01*
X116812Y341125D01*
X117266Y341407D01*
X117967Y340868D01*
X119123Y340390D01*
X119363Y340358D01*
Y345018D01*
Y349677D01*
X119123Y349645D01*
X117967Y349167D01*
X116975Y348405D01*
X116402Y347658D01*
X115902Y347828D01*
Y365891D01*
X115747Y366671D01*
X115305Y367333D01*
X112402Y370236D01*
Y396666D01*
X117832D01*
Y404166D01*
X112402D01*
Y415523D01*
X115038Y418159D01*
X119968D01*
X120001Y417659D01*
X119123Y417544D01*
X117967Y417065D01*
X116975Y416304D01*
X116214Y415312D01*
X115735Y414156D01*
X115703Y413916D01*
X120363D01*
X125022D01*
X124990Y414156D01*
X124512Y415312D01*
X123750Y416304D01*
X122758Y417065D01*
X121603Y417544D01*
X120725Y417659D01*
X120758Y418159D01*
X143561D01*
X148324Y413397D01*
Y375986D01*
X148479Y375206D01*
X148921Y374544D01*
X149324Y374141D01*
Y370583D01*
X148395D01*
Y363083D01*
X154332D01*
Y364059D01*
X161446D01*
X168586Y356919D01*
X169160Y356479D01*
X169829Y356202D01*
X170547Y356107D01*
X255565D01*
Y352881D01*
X257516D01*
Y346849D01*
X256856Y346342D01*
X256135Y345402D01*
X255681Y344307D01*
X255526Y343133D01*
X255681Y341958D01*
X256135Y340863D01*
X256856Y339923D01*
X257796Y339202D01*
X258891Y338749D01*
X260065Y338594D01*
X261240Y338749D01*
X262335Y339202D01*
X263275Y339923D01*
X263996Y340863D01*
X264450Y341958D01*
X264604Y343133D01*
X264450Y344307D01*
X263996Y345402D01*
X263275Y346342D01*
X262614Y346849D01*
Y352881D01*
X264565D01*
Y364881D01*
X262614D01*
Y365957D01*
X267534D01*
Y373458D01*
X266605D01*
Y374022D01*
X266812Y374332D01*
X266968Y375113D01*
Y376483D01*
X267247D01*
Y384585D01*
X263279D01*
X263071Y385085D01*
X264896Y386910D01*
X288026D01*
Y384585D01*
X287884D01*
Y376483D01*
X292247D01*
Y384585D01*
X292105D01*
Y386910D01*
X312410D01*
Y380534D01*
X312504Y379816D01*
X312634Y379502D01*
Y373458D01*
X307715D01*
Y371747D01*
X299238D01*
X297105Y373880D01*
Y376483D01*
X297247D01*
Y384585D01*
X292884D01*
Y376483D01*
X293026D01*
Y373035D01*
X293181Y372255D01*
X293623Y371593D01*
X296951Y368266D01*
X297613Y367824D01*
X298393Y367668D01*
X307715D01*
Y365957D01*
X312634D01*
Y364881D01*
X310683D01*
Y352881D01*
X312634D01*
Y346849D01*
X311974Y346342D01*
X311253Y345402D01*
X310799Y344307D01*
X310645Y343133D01*
X310799Y341958D01*
X311253Y340863D01*
X311974Y339923D01*
X312914Y339202D01*
X314009Y338749D01*
X315183Y338594D01*
X316358Y338749D01*
X317453Y339202D01*
X318393Y339923D01*
X319114Y340863D01*
X319568Y341958D01*
X319722Y343133D01*
X319568Y344307D01*
X319114Y345402D01*
X318393Y346342D01*
X317733Y346849D01*
Y352881D01*
X319684D01*
Y364881D01*
X317733D01*
Y365957D01*
X322652D01*
Y367668D01*
X322802D01*
X323583Y367824D01*
X324244Y368266D01*
X326625Y370647D01*
X327067Y371308D01*
X327223Y372089D01*
Y376483D01*
X327365D01*
Y384585D01*
X323002D01*
Y376483D01*
X323144D01*
Y373476D01*
X322652Y373458D01*
Y373458D01*
X317733D01*
Y376095D01*
X318002Y376483D01*
X318232Y376483D01*
X322365D01*
Y384585D01*
X318002Y384585D01*
X317957Y385067D01*
Y386910D01*
X343144D01*
Y384585D01*
X343002D01*
Y376483D01*
X347365D01*
Y384585D01*
X347223D01*
Y386910D01*
X355634D01*
X359837Y382707D01*
X360412Y382266D01*
X361081Y381989D01*
X361799Y381894D01*
X366581D01*
X366915Y381459D01*
X367351Y381124D01*
Y350518D01*
Y302806D01*
X336068Y271523D01*
X244717D01*
X243999Y271429D01*
X243330Y271152D01*
X242756Y270711D01*
X216068Y244023D01*
X51217D01*
X50499Y243929D01*
X49830Y243652D01*
X49255Y243211D01*
X45158Y239113D01*
X44717Y238539D01*
X44440Y237870D01*
X44346Y237152D01*
Y229889D01*
X43910Y229554D01*
X43189Y228614D01*
X42735Y227520D01*
X42581Y226345D01*
X42735Y225170D01*
X43189Y224076D01*
X43910Y223135D01*
X44346Y222801D01*
Y216597D01*
X42619D01*
Y204597D01*
X44346D01*
Y199702D01*
X44216Y199603D01*
X43563Y198752D01*
X43153Y197762D01*
X43038Y196888D01*
X28985D01*
Y198349D01*
X20485D01*
Y191375D01*
X13933D01*
X11000Y194308D01*
Y322962D01*
X19025Y330987D01*
X31542D01*
X33525Y329004D01*
Y326018D01*
X33646Y325104D01*
X33664Y325059D01*
Y324836D01*
X33780Y323959D01*
X34119Y323141D01*
X34658Y322439D01*
X35360Y321900D01*
X36178Y321561D01*
X37056Y321445D01*
X37933Y321561D01*
X38751Y321900D01*
X39454Y322439D01*
X39992Y323141D01*
X40331Y323959D01*
X40447Y324836D01*
Y325059D01*
X40466Y325104D01*
X40586Y326018D01*
Y330467D01*
X40466Y331380D01*
X40113Y332232D01*
X39552Y332963D01*
X35501Y337014D01*
X34770Y337575D01*
X33918Y337928D01*
X33005Y338048D01*
X17563D01*
X16649Y337928D01*
X15798Y337575D01*
X15067Y337014D01*
X4974Y326921D01*
X4413Y326190D01*
X4060Y325338D01*
X3940Y324425D01*
Y193559D01*
X4060Y192645D01*
X4413Y191794D01*
X4974Y191062D01*
X5705Y190501D01*
X6556Y190149D01*
X6607Y190142D01*
X10540Y186209D01*
X11167Y185729D01*
X11896Y185426D01*
X12679Y185323D01*
X17133D01*
Y177023D01*
X17288Y176242D01*
X17730Y175581D01*
X21094Y172217D01*
Y171571D01*
X20620Y171410D01*
X20405Y171690D01*
X19466Y172412D01*
X18371Y172865D01*
X18196Y172888D01*
Y168481D01*
X17196D01*
D01*
X18196D01*
Y164074D01*
X18371Y164097D01*
X19466Y164550D01*
X20405Y165271D01*
X20620Y165551D01*
X21094Y165391D01*
Y160929D01*
X21249Y160149D01*
X21691Y159487D01*
X24447Y156731D01*
X25109Y156289D01*
X25889Y156134D01*
X30618D01*
X32025Y154727D01*
X31818Y154227D01*
X26957D01*
Y153712D01*
X26567Y153445D01*
X20630D01*
Y147508D01*
X26567D01*
X26957Y147242D01*
Y146727D01*
X32511D01*
Y144259D01*
X32666Y143479D01*
X33108Y142817D01*
X36836Y139089D01*
Y138479D01*
X35957D01*
Y130979D01*
X41894D01*
Y138479D01*
X40915D01*
Y139934D01*
X40760Y140714D01*
X40317Y141376D01*
X36590Y145104D01*
Y146727D01*
X41894D01*
Y152279D01*
X42394Y152379D01*
X42443Y152261D01*
X43084Y151425D01*
X54252Y140257D01*
Y121020D01*
X41894D01*
Y122731D01*
X35957D01*
Y115231D01*
X41894D01*
Y116942D01*
X54252D01*
Y80253D01*
X52326D01*
Y71253D01*
X64326D01*
Y71718D01*
X83114D01*
Y71253D01*
X95114D01*
Y71718D01*
X113902D01*
Y71253D01*
X125902D01*
Y71718D01*
X140508D01*
X147432Y64794D01*
Y47906D01*
X147432Y47906D01*
X147570Y46862D01*
X147973Y45889D01*
X148614Y45053D01*
X160331Y33336D01*
Y24997D01*
X159748Y24237D01*
X159653Y24009D01*
X149155D01*
X149060Y24237D01*
X148206Y25351D01*
X147139Y26169D01*
Y27110D01*
X147044Y27828D01*
X146767Y28497D01*
X146326Y29071D01*
X143262Y32135D01*
X142688Y32576D01*
X142019Y32853D01*
X141301Y32948D01*
X136341D01*
Y35702D01*
X126341D01*
Y24646D01*
X136341D01*
Y27400D01*
X140152D01*
X141239Y26313D01*
X141206Y25814D01*
X140602Y25351D01*
X139748Y24237D01*
X139210Y22940D01*
X139027Y21549D01*
Y18399D01*
X139210Y17008D01*
X139748Y15711D01*
X140602Y14597D01*
X141222Y14121D01*
X141255Y13622D01*
X140191Y12558D01*
X136341D01*
Y15302D01*
X126341D01*
Y4247D01*
X136341D01*
Y7011D01*
X141340D01*
X142058Y7105D01*
X142727Y7382D01*
X143301Y7823D01*
X146365Y10887D01*
X146806Y11462D01*
X147083Y12131D01*
X147178Y12849D01*
Y13808D01*
X148206Y14597D01*
X149060Y15711D01*
X149155Y15939D01*
X159653D01*
X159748Y15711D01*
X160602Y14597D01*
X161716Y13743D01*
X163012Y13206D01*
X164404Y13023D01*
X165796Y13206D01*
X167092Y13743D01*
X168206Y14597D01*
X169060Y15711D01*
X169597Y17008D01*
X169781Y18399D01*
Y21549D01*
X169597Y22940D01*
X169060Y24237D01*
X168400Y25098D01*
Y35007D01*
X168262Y36051D01*
X167859Y37025D01*
X167218Y37860D01*
X155501Y49577D01*
Y66465D01*
X155501Y66465D01*
X155364Y67509D01*
X154961Y68482D01*
X154320Y69318D01*
X154319Y69318D01*
X145032Y78605D01*
X144196Y79247D01*
X143223Y79650D01*
X142179Y79787D01*
X142179Y79787D01*
X125902D01*
Y80253D01*
X124399D01*
Y82154D01*
X127941Y85696D01*
X146923D01*
X161999Y70620D01*
Y55085D01*
X161999Y55085D01*
X162136Y54040D01*
X162540Y53067D01*
X163181Y52232D01*
X182078Y33334D01*
X182078Y33334D01*
X182914Y32693D01*
X183887Y32290D01*
X184931Y32153D01*
X238582D01*
X247353Y23382D01*
Y17285D01*
X259195D01*
Y29128D01*
X253018D01*
X243106Y39040D01*
X242271Y39681D01*
X241298Y40084D01*
X240253Y40222D01*
X240253Y40222D01*
X186602D01*
X170068Y56756D01*
Y72291D01*
X169931Y73336D01*
X169528Y74309D01*
X168886Y75144D01*
X151447Y92583D01*
X150612Y93224D01*
X149639Y93627D01*
X148594Y93765D01*
X148594Y93765D01*
X126270D01*
X125226Y93627D01*
X124252Y93224D01*
X123417Y92583D01*
X123417Y92583D01*
X117511Y86678D01*
X116870Y85842D01*
X116467Y84869D01*
X116330Y83825D01*
X116330Y83825D01*
Y80253D01*
X113902D01*
Y79787D01*
X95114D01*
Y80253D01*
X83114D01*
Y79787D01*
X64326D01*
Y80253D01*
X62321D01*
Y118981D01*
Y141928D01*
X62321Y141928D01*
X62184Y142972D01*
X61781Y143946D01*
X61140Y144781D01*
X61140Y144781D01*
X49971Y155949D01*
Y162981D01*
X50726D01*
Y173981D01*
X41226D01*
Y172515D01*
X34215D01*
X33371Y172865D01*
X32196Y173020D01*
X31021Y172865D01*
X29927Y172412D01*
X28987Y171690D01*
X28722Y171346D01*
X28222Y171516D01*
Y174304D01*
X28067Y175085D01*
X27625Y175746D01*
X26736Y176636D01*
Y178349D01*
X28985D01*
Y185323D01*
X30077D01*
X39621Y175780D01*
X39621Y175780D01*
X40247Y175299D01*
X40977Y174997D01*
X41760Y174893D01*
X41760Y174893D01*
X70468D01*
X77743Y167618D01*
X77750Y167567D01*
X78102Y166716D01*
X78663Y165985D01*
X79394Y165424D01*
X80246Y165071D01*
X81160Y164951D01*
X197618D01*
X198084Y164343D01*
X199076Y163582D01*
X200232Y163103D01*
X201472Y162940D01*
X202712Y163103D01*
X203867Y163582D01*
X204859Y164343D01*
X205326Y164951D01*
X211810D01*
X212332Y164550D01*
X213426Y164097D01*
X214601Y163942D01*
X215776Y164097D01*
X216871Y164550D01*
X217811Y165271D01*
X218532Y166211D01*
X218985Y167306D01*
X219140Y168481D01*
X218985Y169656D01*
X218532Y170750D01*
X217811Y171690D01*
X216871Y172412D01*
X215776Y172865D01*
X214601Y173020D01*
X213426Y172865D01*
X212332Y172412D01*
X211810Y172011D01*
X205326D01*
X204859Y172619D01*
X203867Y173380D01*
X202712Y173859D01*
X201472Y174022D01*
X200232Y173859D01*
X199076Y173380D01*
X198084Y172619D01*
X197618Y172011D01*
X81909D01*
X73861Y180059D01*
X73234Y180540D01*
X72504Y180842D01*
X71721Y180945D01*
X43014D01*
X33470Y190489D01*
X32844Y190970D01*
X32114Y191272D01*
X31331Y191375D01*
X28985D01*
Y192810D01*
X43038D01*
X43153Y191936D01*
X43563Y190945D01*
X44216Y190095D01*
X45066Y189443D01*
X46057Y189032D01*
X47119Y188892D01*
X48182Y189032D01*
X49172Y189443D01*
X50023Y190095D01*
X50675Y190945D01*
X51085Y191936D01*
X51225Y192998D01*
Y196699D01*
X51085Y197762D01*
X50675Y198752D01*
X50023Y199603D01*
X49893Y199702D01*
Y204597D01*
X51619D01*
Y216597D01*
X49893D01*
Y222801D01*
X50329Y223135D01*
X51050Y224076D01*
X51503Y225170D01*
X51658Y226345D01*
X51503Y227520D01*
X51050Y228614D01*
X50329Y229554D01*
X49893Y229889D01*
Y236003D01*
X52366Y238476D01*
X217217D01*
X217935Y238571D01*
X218604Y238848D01*
X219178Y239288D01*
X245866Y265976D01*
X337217D01*
X337935Y266071D01*
X338604Y266348D01*
X339178Y266789D01*
X372086Y299696D01*
X372527Y300271D01*
X372804Y300939D01*
X372898Y301657D01*
Y345320D01*
X372924Y345817D01*
X373005Y346276D01*
X373129Y346647D01*
X373286Y346938D01*
X373474Y347168D01*
X373704Y347356D01*
X373995Y347513D01*
X374366Y347637D01*
X374825Y347718D01*
X375323Y347744D01*
X413714D01*
X417089Y344369D01*
Y296803D01*
X416589Y296634D01*
X416324Y296979D01*
X414025Y299278D01*
X413450Y299719D01*
X412781Y299996D01*
X412064Y300091D01*
X411223D01*
X410865Y300557D01*
X409916Y301285D01*
X408811Y301743D01*
X407625Y301899D01*
X404869D01*
X403683Y301743D01*
X402578Y301285D01*
X401629Y300557D01*
X400900Y299608D01*
X400443Y298503D01*
X400286Y297317D01*
X400443Y296131D01*
X400900Y295026D01*
X401629Y294076D01*
X402578Y293348D01*
X403683Y292891D01*
X404869Y292734D01*
X407625D01*
X408811Y292891D01*
X409916Y293348D01*
X410865Y294076D01*
X411184Y294097D01*
X411589Y293711D01*
Y288466D01*
X405901Y282778D01*
X405461Y282204D01*
X405184Y281535D01*
X405089Y280817D01*
Y227956D01*
X405184Y227238D01*
X405461Y226569D01*
X405901Y225995D01*
X409192Y222704D01*
X409121Y222159D01*
X409192Y221615D01*
X408856Y221279D01*
X408416Y220705D01*
X408139Y220036D01*
X408044Y219318D01*
Y211427D01*
X406318D01*
Y199427D01*
X415318D01*
Y211427D01*
X413591D01*
Y217561D01*
X413659Y217620D01*
X414834Y217775D01*
X415929Y218229D01*
X416869Y218950D01*
X417590Y219890D01*
X418044Y220985D01*
X418198Y222159D01*
X418044Y223334D01*
X417590Y224429D01*
X416869Y225369D01*
X416433Y225703D01*
Y277665D01*
X421824Y283056D01*
X422265Y283631D01*
X422542Y284300D01*
X422637Y285018D01*
Y345518D01*
X422542Y346235D01*
X422265Y346904D01*
X421824Y347479D01*
X416824Y352479D01*
X416250Y352920D01*
X415581Y353197D01*
X414863Y353291D01*
X375323D01*
X374825Y353317D01*
X374365Y353399D01*
X373995Y353522D01*
X373704Y353679D01*
X373474Y353867D01*
X373286Y354097D01*
X373129Y354388D01*
X373005Y354759D01*
X372924Y355218D01*
X372898Y355716D01*
Y381124D01*
X373334Y381459D01*
X374055Y382399D01*
X374509Y383493D01*
X374663Y384668D01*
X374509Y385843D01*
X374055Y386937D01*
X373334Y387877D01*
X372898Y388212D01*
Y394416D01*
X374624D01*
Y406416D01*
X372898D01*
Y415248D01*
X373028Y415347D01*
X373680Y416198D01*
X374091Y417188D01*
X374230Y418251D01*
Y421952D01*
X374091Y423014D01*
X373680Y424005D01*
X373028Y424855D01*
X372177Y425507D01*
X371187Y425918D01*
X370124Y426058D01*
D02*
G37*
G36*
X121363Y392576D02*
Y388916D01*
X125022D01*
X124990Y389156D01*
X124512Y390312D01*
X123750Y391304D01*
X122758Y392065D01*
X121603Y392544D01*
X121363Y392576D01*
D02*
G37*
G36*
X119363D02*
X119123Y392544D01*
X117967Y392065D01*
X116975Y391304D01*
X116214Y390312D01*
X115735Y389156D01*
X115703Y388916D01*
X119363D01*
Y392576D01*
D02*
G37*
G36*
X386124Y389075D02*
Y385668D01*
X389532D01*
X389509Y385843D01*
X389055Y386937D01*
X388334Y387877D01*
X387394Y388599D01*
X386299Y389052D01*
X386124Y389075D01*
D02*
G37*
G36*
X384124Y389075D02*
X383950Y389052D01*
X382855Y388599D01*
X381915Y387877D01*
X381194Y386937D01*
X380740Y385843D01*
X380717Y385668D01*
X384124D01*
Y389075D01*
D02*
G37*
G36*
X119363Y386916D02*
X115703D01*
X115735Y386676D01*
X116214Y385521D01*
X116975Y384528D01*
X117967Y383767D01*
X119123Y383288D01*
X119363Y383257D01*
Y386916D01*
D02*
G37*
G36*
X125022D02*
X121363D01*
Y383257D01*
X121603Y383288D01*
X122758Y383767D01*
X123750Y384528D01*
X124512Y385521D01*
X124990Y386676D01*
X125022Y386916D01*
D02*
G37*
G36*
X332365Y384585D02*
X331184D01*
Y381534D01*
X332365D01*
Y384585D01*
D02*
G37*
G36*
X277246D02*
X276065D01*
Y381534D01*
X277246D01*
Y384585D01*
D02*
G37*
G36*
X329184D02*
X328002D01*
Y381534D01*
X329184D01*
Y384585D01*
D02*
G37*
G36*
X274065D02*
X272884D01*
Y381534D01*
X274065D01*
Y384585D01*
D02*
G37*
G36*
X157863Y383992D02*
Y380333D01*
X161522D01*
X161490Y380573D01*
X161012Y381728D01*
X160250Y382720D01*
X159258Y383482D01*
X158103Y383960D01*
X157863Y383992D01*
D02*
G37*
G36*
X86363D02*
Y380333D01*
X90022D01*
X89991Y380573D01*
X89512Y381728D01*
X88750Y382720D01*
X87758Y383482D01*
X86603Y383960D01*
X86363Y383992D01*
D02*
G37*
G36*
X384124Y383668D02*
X380717D01*
X380740Y383493D01*
X381194Y382399D01*
X381915Y381459D01*
X382855Y380737D01*
X383950Y380284D01*
X384124Y380261D01*
Y383668D01*
D02*
G37*
G36*
X389532D02*
X386124D01*
Y380261D01*
X386299Y380284D01*
X387394Y380737D01*
X388334Y381459D01*
X389055Y382399D01*
X389509Y383493D01*
X389532Y383668D01*
D02*
G37*
G36*
X352365Y384585D02*
X348002D01*
Y376483D01*
X352365D01*
Y384585D01*
D02*
G37*
G36*
X332365Y379534D02*
X331184D01*
Y376483D01*
X332365D01*
Y379534D01*
D02*
G37*
G36*
X329184D02*
X328002D01*
Y376483D01*
X329184D01*
Y379534D01*
D02*
G37*
G36*
X277246D02*
X276065D01*
Y376483D01*
X277246D01*
Y379534D01*
D02*
G37*
G36*
X274065D02*
X272884D01*
Y376483D01*
X274065D01*
Y379534D01*
D02*
G37*
G36*
X342365Y384585D02*
X338002D01*
Y376483D01*
X338002Y376483D01*
X338002D01*
X337973Y376354D01*
X337448Y376300D01*
X337365Y376483D01*
Y384585D01*
X333002D01*
Y376483D01*
X333144D01*
Y375552D01*
X333299Y374771D01*
X333742Y374110D01*
X342172Y365679D01*
Y327987D01*
X333806Y319620D01*
X329433D01*
Y321582D01*
X325183D01*
X320933D01*
Y319620D01*
X287024D01*
X286975Y320121D01*
X287362Y320198D01*
X288024Y320640D01*
X293535Y326151D01*
X293977Y326813D01*
X294133Y327593D01*
X294133Y327593D01*
Y367766D01*
X294133Y367766D01*
X293977Y368546D01*
X293535Y369208D01*
X293535Y369208D01*
X287105Y375639D01*
Y376483D01*
X287246D01*
Y384585D01*
X282884D01*
Y376483D01*
X282884Y376483D01*
X282884D01*
X282855Y376354D01*
X282330Y376300D01*
X282246Y376483D01*
Y384585D01*
X277884D01*
Y376483D01*
X277884D01*
X277870Y376217D01*
X277588Y375825D01*
X272597D01*
X272383Y376040D01*
X272247Y376483D01*
X272247Y376483D01*
X272247D01*
X272247Y376483D01*
Y384585D01*
X267884D01*
Y376483D01*
X268026D01*
Y375473D01*
X268181Y374693D01*
X268623Y374031D01*
X270310Y372344D01*
X270972Y371902D01*
X271752Y371747D01*
X276743D01*
X284054Y364436D01*
Y330923D01*
X283252Y330121D01*
X274252D01*
X271349Y333023D01*
X270688Y333465D01*
X269907Y333621D01*
X254280D01*
X253500Y333465D01*
X252838Y333023D01*
X249936Y330121D01*
X226379D01*
X225599Y329965D01*
X224938Y329523D01*
X217941Y322527D01*
X217499Y321865D01*
X217344Y321085D01*
Y290321D01*
X204538Y277515D01*
X127119Y277515D01*
X123464D01*
X119158Y281821D01*
Y289437D01*
X119172Y289442D01*
X120023Y290095D01*
X120675Y290945D01*
X121085Y291936D01*
X121225Y292998D01*
Y296699D01*
X121085Y297762D01*
X120675Y298752D01*
X120023Y299603D01*
X119172Y300255D01*
X118182Y300665D01*
X117119Y300805D01*
X116057Y300665D01*
X115066Y300255D01*
X114216Y299603D01*
X113563Y298752D01*
X113153Y297762D01*
X113013Y296699D01*
Y292998D01*
X113153Y291936D01*
X113563Y290945D01*
X114216Y290095D01*
X115066Y289442D01*
X115080Y289437D01*
Y282310D01*
X114618Y282119D01*
X109159Y287578D01*
Y289437D01*
X109172Y289442D01*
X110023Y290095D01*
X110675Y290945D01*
X111085Y291936D01*
X111225Y292998D01*
Y296699D01*
X111085Y297762D01*
X110675Y298752D01*
X110023Y299603D01*
X109172Y300255D01*
X108182Y300665D01*
X107119Y300805D01*
X106057Y300665D01*
X105066Y300255D01*
X104216Y299603D01*
X103563Y298752D01*
X103153Y297762D01*
X103013Y296699D01*
Y292998D01*
X103153Y291936D01*
X103563Y290945D01*
X104216Y290095D01*
X105066Y289442D01*
X105080Y289437D01*
Y287810D01*
X104580Y287439D01*
X104119Y287530D01*
X101213D01*
X99513Y289230D01*
X99546Y289729D01*
X100023Y290095D01*
X100675Y290945D01*
X101085Y291936D01*
X101225Y292998D01*
Y296699D01*
X101085Y297762D01*
X100675Y298752D01*
X100023Y299603D01*
X99172Y300255D01*
X98182Y300665D01*
X97119Y300805D01*
X96057Y300665D01*
X95066Y300255D01*
X94216Y299603D01*
X93563Y298752D01*
X93153Y297762D01*
X93013Y296699D01*
Y292998D01*
X93153Y291936D01*
X93563Y290945D01*
X94216Y290095D01*
X95066Y289442D01*
X95080Y289437D01*
Y288740D01*
X95235Y287960D01*
X95677Y287298D01*
X98926Y284049D01*
X98926Y284049D01*
X99588Y283607D01*
X100368Y283452D01*
X103275D01*
X118692Y268034D01*
X119354Y267592D01*
X120134Y267437D01*
X127119D01*
X207868Y267437D01*
X208648Y267592D01*
X209310Y268034D01*
X226825Y285549D01*
X226825Y285549D01*
X227267Y286211D01*
X227422Y286991D01*
Y317755D01*
X229709Y320042D01*
X250685D01*
Y314581D01*
X250840Y313801D01*
X251282Y313139D01*
X252955Y311466D01*
X252955Y311466D01*
X253617Y311024D01*
X254397Y310869D01*
X267777D01*
X268557Y311024D01*
X269218Y311466D01*
X270294Y312542D01*
X320933D01*
Y310581D01*
X325183D01*
X329433D01*
Y312542D01*
X335893D01*
X336673Y312697D01*
X337335Y313139D01*
X348654Y324458D01*
X349096Y325119D01*
X349251Y325900D01*
Y367766D01*
X349251Y367766D01*
X349096Y368546D01*
X348654Y369208D01*
X348654Y369208D01*
X342223Y375639D01*
Y376483D01*
X342365D01*
Y384585D01*
D02*
G37*
G36*
X161522Y378333D02*
X157863D01*
Y374673D01*
X158103Y374705D01*
X159258Y375184D01*
X160250Y375945D01*
X161012Y376937D01*
X161490Y378093D01*
X161522Y378333D01*
D02*
G37*
G36*
X90022D02*
X86363D01*
Y374673D01*
X86603Y374705D01*
X87758Y375184D01*
X88750Y375945D01*
X89512Y376937D01*
X89991Y378093D01*
X90022Y378333D01*
D02*
G37*
G36*
X326184Y364788D02*
Y359881D01*
X329722D01*
Y360381D01*
X329568Y361556D01*
X329114Y362650D01*
X328393Y363590D01*
X327453Y364312D01*
X326358Y364765D01*
X326184Y364788D01*
D02*
G37*
G36*
X324184D02*
X324009Y364765D01*
X322914Y364312D01*
X321974Y363590D01*
X321253Y362650D01*
X320799Y361556D01*
X320645Y360381D01*
Y359881D01*
X324184D01*
Y364788D01*
D02*
G37*
G36*
X271065D02*
Y359881D01*
X274604D01*
Y360381D01*
X274449Y361556D01*
X273996Y362650D01*
X273275Y363590D01*
X272335Y364312D01*
X271240Y364765D01*
X271065Y364788D01*
D02*
G37*
G36*
X269065D02*
X268891Y364765D01*
X267796Y364312D01*
X266856Y363590D01*
X266135Y362650D01*
X265681Y361556D01*
X265527Y360381D01*
Y359881D01*
X269065D01*
Y364788D01*
D02*
G37*
G36*
X157863Y358992D02*
Y355333D01*
X161522D01*
X161490Y355573D01*
X161012Y356728D01*
X160250Y357720D01*
X159258Y358482D01*
X158103Y358960D01*
X157863Y358992D01*
D02*
G37*
G36*
X86363D02*
Y355333D01*
X90022D01*
X89991Y355573D01*
X89512Y356728D01*
X88750Y357720D01*
X87758Y358482D01*
X86603Y358960D01*
X86363Y358992D01*
D02*
G37*
G36*
X155863Y358992D02*
X155623Y358960D01*
X154467Y358482D01*
X153475Y357720D01*
X152714Y356728D01*
X152235Y355573D01*
X152204Y355333D01*
X155863D01*
Y358992D01*
D02*
G37*
G36*
X84363D02*
X84123Y358960D01*
X82967Y358482D01*
X81975Y357720D01*
X81214Y356728D01*
X80735Y355573D01*
X80704Y355333D01*
X84363D01*
Y358992D01*
D02*
G37*
G36*
X329722Y357881D02*
X326184D01*
Y352974D01*
X326358Y352997D01*
X327453Y353450D01*
X328393Y354171D01*
X329114Y355111D01*
X329568Y356206D01*
X329722Y357381D01*
Y357881D01*
D02*
G37*
G36*
X324184D02*
X320645D01*
Y357381D01*
X320799Y356206D01*
X321253Y355111D01*
X321974Y354171D01*
X322914Y353450D01*
X324009Y352997D01*
X324184Y352974D01*
Y357881D01*
D02*
G37*
G36*
X274604D02*
X271065D01*
Y352974D01*
X271240Y352997D01*
X272335Y353450D01*
X273275Y354171D01*
X273996Y355111D01*
X274449Y356206D01*
X274604Y357381D01*
Y357881D01*
D02*
G37*
G36*
X269065D02*
X265527D01*
Y357381D01*
X265681Y356206D01*
X266135Y355111D01*
X266856Y354171D01*
X267796Y353450D01*
X268891Y352997D01*
X269065Y352974D01*
Y357881D01*
D02*
G37*
G36*
X155863Y353333D02*
X152204D01*
X152235Y353093D01*
X152714Y351937D01*
X153475Y350945D01*
X154467Y350184D01*
X155623Y349705D01*
X155863Y349673D01*
Y353333D01*
D02*
G37*
G36*
X84363D02*
X80704D01*
X80735Y353093D01*
X81214Y351937D01*
X81975Y350945D01*
X82967Y350184D01*
X84123Y349705D01*
X84363Y349673D01*
Y353333D01*
D02*
G37*
G36*
X161522D02*
X157863D01*
Y349673D01*
X158103Y349705D01*
X159258Y350184D01*
X160250Y350945D01*
X161012Y351937D01*
X161490Y353093D01*
X161522Y353333D01*
D02*
G37*
G36*
X90022D02*
X86363D01*
Y349673D01*
X86603Y349705D01*
X87758Y350184D01*
X88750Y350945D01*
X89512Y351937D01*
X89991Y353093D01*
X90022Y353333D01*
D02*
G37*
G36*
X121363Y349677D02*
Y346018D01*
X125022D01*
X124990Y346258D01*
X124512Y347413D01*
X123750Y348405D01*
X122758Y349167D01*
X121603Y349645D01*
X121363Y349677D01*
D02*
G37*
G36*
X331184Y347540D02*
Y344133D01*
X334591D01*
X334568Y344307D01*
X334114Y345402D01*
X333393Y346342D01*
X332453Y347063D01*
X331358Y347517D01*
X331184Y347540D01*
D02*
G37*
G36*
X276065D02*
Y344133D01*
X279472D01*
X279450Y344307D01*
X278996Y345402D01*
X278275Y346342D01*
X277335Y347063D01*
X276240Y347517D01*
X276065Y347540D01*
D02*
G37*
G36*
X329184Y347540D02*
X329009Y347517D01*
X327914Y347063D01*
X326974Y346342D01*
X326253Y345402D01*
X325799Y344307D01*
X325776Y344133D01*
X329184D01*
Y347540D01*
D02*
G37*
G36*
X274065D02*
X273891Y347517D01*
X272796Y347063D01*
X271856Y346342D01*
X271135Y345402D01*
X270681Y344307D01*
X270658Y344133D01*
X274065D01*
Y347540D01*
D02*
G37*
G36*
X125022Y344018D02*
X121363D01*
Y340358D01*
X121603Y340390D01*
X122758Y340868D01*
X123750Y341630D01*
X124512Y342622D01*
X124990Y343778D01*
X125022Y344018D01*
D02*
G37*
G36*
X334591Y342133D02*
X331184D01*
Y338725D01*
X331358Y338749D01*
X332453Y339202D01*
X333393Y339923D01*
X334114Y340863D01*
X334568Y341958D01*
X334591Y342133D01*
D02*
G37*
G36*
X279472D02*
X276065D01*
Y338725D01*
X276240Y338749D01*
X277335Y339202D01*
X278275Y339923D01*
X278996Y340863D01*
X279450Y341958D01*
X279472Y342133D01*
D02*
G37*
G36*
X329184D02*
X325776D01*
X325799Y341958D01*
X326253Y340863D01*
X326974Y339923D01*
X327914Y339202D01*
X329009Y338749D01*
X329184Y338725D01*
Y342133D01*
D02*
G37*
G36*
X274065D02*
X270658D01*
X270681Y341958D01*
X271135Y340863D01*
X271856Y339923D01*
X272796Y339202D01*
X273891Y338749D01*
X274065Y338725D01*
Y342133D01*
D02*
G37*
G36*
X412168Y331860D02*
X407247D01*
Y328317D01*
X412168D01*
Y331860D01*
D02*
G37*
G36*
X405247D02*
X400326D01*
Y328317D01*
X405247D01*
Y331860D01*
D02*
G37*
G36*
X329433Y326081D02*
X326183D01*
Y323582D01*
X329433D01*
Y326081D01*
D02*
G37*
G36*
X324183D02*
X320933D01*
Y323582D01*
X324183D01*
Y326081D01*
D02*
G37*
G36*
X412168Y326317D02*
X407247D01*
Y322774D01*
X412168D01*
Y326317D01*
D02*
G37*
G36*
X405247D02*
X400326D01*
Y322774D01*
X405247D01*
Y326317D01*
D02*
G37*
G36*
X121363Y324677D02*
Y321018D01*
X125022D01*
X124990Y321258D01*
X124512Y322413D01*
X123750Y323405D01*
X122758Y324167D01*
X121603Y324645D01*
X121363Y324677D01*
D02*
G37*
G36*
X119363D02*
X119123Y324645D01*
X117967Y324167D01*
X116975Y323405D01*
X116214Y322413D01*
X115735Y321258D01*
X115703Y321018D01*
X119363D01*
Y324677D01*
D02*
G37*
G36*
X125022Y319018D02*
X121363D01*
Y315358D01*
X121603Y315390D01*
X122758Y315868D01*
X123750Y316630D01*
X124512Y317622D01*
X124990Y318778D01*
X125022Y319018D01*
D02*
G37*
G36*
X119363D02*
X115703D01*
X115735Y318778D01*
X116214Y317622D01*
X116975Y316630D01*
X117967Y315868D01*
X119123Y315390D01*
X119363Y315358D01*
Y319018D01*
D02*
G37*
G36*
X407625Y321899D02*
X404869D01*
X403683Y321743D01*
X402578Y321285D01*
X401629Y320557D01*
X400900Y319608D01*
X400796Y319356D01*
X391162D01*
X390382Y319201D01*
X389720Y318759D01*
X384921Y313960D01*
X384479Y313298D01*
X384324Y312518D01*
Y293862D01*
X345518Y255057D01*
X255120Y255057D01*
X254340Y254902D01*
X253678Y254460D01*
X230276Y231057D01*
X120041Y231057D01*
X119261Y230902D01*
X118599Y230459D01*
X105775Y217636D01*
X100863D01*
X100082Y217481D01*
X99421Y217039D01*
X95677Y213295D01*
X95235Y212634D01*
X95080Y211853D01*
Y200261D01*
X95066Y200255D01*
X94216Y199603D01*
X93563Y198752D01*
X93153Y197762D01*
X93013Y196699D01*
Y192998D01*
X93153Y191936D01*
X93563Y190945D01*
X94216Y190095D01*
X95066Y189443D01*
X96057Y189032D01*
X97119Y188892D01*
X98182Y189032D01*
X99172Y189443D01*
X100023Y190095D01*
X100675Y190945D01*
X101085Y191936D01*
X101225Y192998D01*
Y196699D01*
X101085Y197762D01*
X100675Y198752D01*
X100023Y199603D01*
X99172Y200255D01*
X99159Y200261D01*
Y211009D01*
X101707Y213558D01*
X105251D01*
X105519Y213058D01*
X105235Y212634D01*
X105080Y211853D01*
Y200261D01*
X105066Y200255D01*
X104216Y199603D01*
X103563Y198752D01*
X103153Y197762D01*
X103013Y196699D01*
Y192998D01*
X103153Y191936D01*
X103563Y190945D01*
X104216Y190095D01*
X105066Y189443D01*
X106057Y189032D01*
X107119Y188892D01*
X108182Y189032D01*
X109172Y189443D01*
X110023Y190095D01*
X110675Y190945D01*
X111085Y191936D01*
X111225Y192998D01*
Y196699D01*
X111085Y197762D01*
X110675Y198752D01*
X110023Y199603D01*
X109172Y200255D01*
X109159Y200261D01*
Y211009D01*
X122128Y223978D01*
X232363Y223978D01*
X233143Y224134D01*
X233805Y224576D01*
X257207Y247978D01*
X347605Y247978D01*
X348386Y248134D01*
X349047Y248576D01*
X390805Y290333D01*
X390805Y290333D01*
X391247Y290995D01*
X391402Y291775D01*
Y303032D01*
X393648Y305278D01*
X400796D01*
X400900Y305026D01*
X401629Y304077D01*
X402578Y303348D01*
X403683Y302890D01*
X404869Y302734D01*
X407625D01*
X408811Y302890D01*
X409916Y303348D01*
X410865Y304077D01*
X411593Y305026D01*
X412051Y306131D01*
X412207Y307317D01*
X412051Y308503D01*
X411593Y309608D01*
X410865Y310557D01*
X409916Y311285D01*
X408811Y311743D01*
X407625Y311899D01*
X404869D01*
X403683Y311743D01*
X402578Y311285D01*
X401629Y310557D01*
X400900Y309608D01*
X400796Y309356D01*
X392803D01*
X392023Y309201D01*
X391361Y308759D01*
X388864Y306261D01*
X388402Y306453D01*
Y311673D01*
X392007Y315278D01*
X400796D01*
X400900Y315026D01*
X401629Y314076D01*
X402578Y313348D01*
X403683Y312891D01*
X404869Y312734D01*
X407625D01*
X408811Y312891D01*
X409916Y313348D01*
X410865Y314076D01*
X411593Y315026D01*
X412051Y316131D01*
X412207Y317317D01*
X412051Y318503D01*
X411593Y319608D01*
X410865Y320557D01*
X409916Y321285D01*
X408811Y321743D01*
X407625Y321899D01*
D02*
G37*
G36*
X30403Y309426D02*
X28434D01*
Y306676D01*
X30403D01*
Y309426D01*
D02*
G37*
G36*
X26434D02*
X24466D01*
Y306676D01*
X26434D01*
Y309426D01*
D02*
G37*
G36*
X329433Y308581D02*
X326183D01*
Y306082D01*
X329433D01*
Y308581D01*
D02*
G37*
G36*
X324183D02*
X320933D01*
Y306082D01*
X324183D01*
Y308581D01*
D02*
G37*
G36*
X30403Y304676D02*
X28434D01*
Y301926D01*
X30403D01*
Y304676D01*
D02*
G37*
G36*
X26434D02*
X24466D01*
Y301926D01*
X26434D01*
Y304676D01*
D02*
G37*
G36*
X47119Y300805D02*
X46057Y300665D01*
X45066Y300255D01*
X44216Y299603D01*
X43793Y299052D01*
X41363D01*
Y300545D01*
X31363D01*
Y289490D01*
X41363D01*
Y290983D01*
X43548D01*
X43563Y290945D01*
X44216Y290095D01*
X45066Y289442D01*
X46057Y289032D01*
X47119Y288892D01*
X48182Y289032D01*
X49172Y289442D01*
X50023Y290095D01*
X50675Y290945D01*
X51085Y291936D01*
X51225Y292998D01*
Y296699D01*
X51085Y297762D01*
X50675Y298752D01*
X50023Y299603D01*
X49172Y300255D01*
X48182Y300665D01*
X47119Y300805D01*
D02*
G37*
G36*
X58119Y300674D02*
Y295849D01*
X61225D01*
Y296699D01*
X61085Y297762D01*
X60675Y298752D01*
X60023Y299603D01*
X59172Y300255D01*
X58182Y300665D01*
X58119Y300674D01*
D02*
G37*
G36*
X56119Y300674D02*
X56057Y300665D01*
X55066Y300255D01*
X54216Y299603D01*
X53563Y298752D01*
X53153Y297762D01*
X53013Y296699D01*
Y295849D01*
X56119D01*
Y300674D01*
D02*
G37*
G36*
X46898Y330590D02*
X46020Y330474D01*
X45202Y330136D01*
X44500Y329597D01*
X43961Y328894D01*
X43622Y328076D01*
X43507Y327199D01*
Y324836D01*
X43622Y323959D01*
X43961Y323141D01*
X44124Y322928D01*
Y319202D01*
X41214Y316291D01*
X21863D01*
X21145Y316197D01*
X20476Y315920D01*
X19902Y315479D01*
X16473Y312050D01*
X16032Y311476D01*
X15755Y310807D01*
X15661Y310089D01*
Y309426D01*
X15466D01*
Y301926D01*
X15589D01*
Y300545D01*
X13363D01*
Y289490D01*
X23363D01*
Y300545D01*
X21136D01*
Y301926D01*
X21403D01*
Y309135D01*
X23012Y310744D01*
X42363D01*
X43081Y310838D01*
X43750Y311116D01*
X44324Y311556D01*
X48859Y316092D01*
X49300Y316666D01*
X49577Y317335D01*
X49672Y318053D01*
Y322928D01*
X49835Y323141D01*
X50174Y323959D01*
X50289Y324836D01*
Y327199D01*
X50174Y328076D01*
X49835Y328894D01*
X49296Y329597D01*
X48594Y330136D01*
X47776Y330474D01*
X46898Y330590D01*
D02*
G37*
G36*
X61225Y293849D02*
X58119D01*
Y289024D01*
X58182Y289032D01*
X59172Y289442D01*
X60023Y290095D01*
X60675Y290945D01*
X61085Y291936D01*
X61225Y292998D01*
Y293849D01*
D02*
G37*
G36*
X56119D02*
X53013D01*
Y292998D01*
X53153Y291936D01*
X53563Y290945D01*
X54216Y290095D01*
X55066Y289442D01*
X56057Y289032D01*
X56119Y289024D01*
Y293849D01*
D02*
G37*
G36*
X191190Y300770D02*
X183048D01*
Y288928D01*
X191190D01*
Y300770D01*
D02*
G37*
G36*
X177119Y300805D02*
X176057Y300665D01*
X175066Y300255D01*
X174216Y299603D01*
X173563Y298752D01*
X173153Y297762D01*
X173013Y296699D01*
Y292998D01*
X173153Y291936D01*
X173563Y290945D01*
X174216Y290095D01*
X175066Y289442D01*
X176057Y289032D01*
X177119Y288892D01*
X178182Y289032D01*
X179172Y289442D01*
X180023Y290095D01*
X180675Y290945D01*
X181085Y291936D01*
X181225Y292998D01*
Y296699D01*
X181085Y297762D01*
X180675Y298752D01*
X180023Y299603D01*
X179172Y300255D01*
X178182Y300665D01*
X177119Y300805D01*
D02*
G37*
G36*
X167119D02*
X166057Y300665D01*
X165066Y300255D01*
X164216Y299603D01*
X163563Y298752D01*
X163153Y297762D01*
X163013Y296699D01*
Y292998D01*
X163153Y291936D01*
X163563Y290945D01*
X164216Y290095D01*
X165066Y289442D01*
X166057Y289032D01*
X167119Y288892D01*
X168182Y289032D01*
X169172Y289442D01*
X170023Y290095D01*
X170675Y290945D01*
X171085Y291936D01*
X171225Y292998D01*
Y296699D01*
X171085Y297762D01*
X170675Y298752D01*
X170023Y299603D01*
X169172Y300255D01*
X168182Y300665D01*
X167119Y300805D01*
D02*
G37*
G36*
X87119D02*
X86057Y300665D01*
X85066Y300255D01*
X84216Y299603D01*
X83563Y298752D01*
X83153Y297762D01*
X83013Y296699D01*
Y292998D01*
X83153Y291936D01*
X83563Y290945D01*
X84216Y290095D01*
X85066Y289442D01*
X86057Y289032D01*
X87119Y288892D01*
X88182Y289032D01*
X89172Y289442D01*
X90023Y290095D01*
X90675Y290945D01*
X91085Y291936D01*
X91225Y292998D01*
Y296699D01*
X91085Y297762D01*
X90675Y298752D01*
X90023Y299603D01*
X89172Y300255D01*
X88182Y300665D01*
X87119Y300805D01*
D02*
G37*
G36*
X77119D02*
X76057Y300665D01*
X75066Y300255D01*
X74216Y299603D01*
X73563Y298752D01*
X73153Y297762D01*
X73013Y296699D01*
Y292998D01*
X73153Y291936D01*
X73563Y290945D01*
X74216Y290095D01*
X75066Y289442D01*
X76057Y289032D01*
X77119Y288892D01*
X78182Y289032D01*
X79172Y289442D01*
X80023Y290095D01*
X80675Y290945D01*
X81085Y291936D01*
X81225Y292998D01*
Y296699D01*
X81085Y297762D01*
X80675Y298752D01*
X80023Y299603D01*
X79172Y300255D01*
X78182Y300665D01*
X77119Y300805D01*
D02*
G37*
G36*
X67119D02*
X66057Y300665D01*
X65066Y300255D01*
X64216Y299603D01*
X63563Y298752D01*
X63153Y297762D01*
X63013Y296699D01*
Y292998D01*
X63153Y291936D01*
X63563Y290945D01*
X64216Y290095D01*
X65066Y289442D01*
X66057Y289032D01*
X67119Y288892D01*
X68182Y289032D01*
X69172Y289442D01*
X70023Y290095D01*
X70675Y290945D01*
X71085Y291936D01*
X71225Y292998D01*
Y296699D01*
X71085Y297762D01*
X70675Y298752D01*
X70023Y299603D01*
X69172Y300255D01*
X68182Y300665D01*
X67119Y300805D01*
D02*
G37*
G36*
X33119Y230752D02*
Y227345D01*
X36527D01*
X36503Y227520D01*
X36050Y228614D01*
X35329Y229554D01*
X34389Y230276D01*
X33294Y230729D01*
X33119Y230752D01*
D02*
G37*
G36*
X31119D02*
X30945Y230729D01*
X29850Y230276D01*
X28910Y229554D01*
X28189Y228614D01*
X27735Y227520D01*
X27712Y227345D01*
X31119D01*
Y230752D01*
D02*
G37*
G36*
X399659Y226567D02*
Y223159D01*
X403067D01*
X403044Y223334D01*
X402590Y224429D01*
X401869Y225369D01*
X400929Y226090D01*
X399834Y226543D01*
X399659Y226567D01*
D02*
G37*
G36*
X397659D02*
X397485Y226543D01*
X396390Y226090D01*
X395450Y225369D01*
X394729Y224429D01*
X394275Y223334D01*
X394252Y223159D01*
X397659D01*
Y226567D01*
D02*
G37*
G36*
X36527Y225345D02*
X33119D01*
Y221938D01*
X33294Y221961D01*
X34389Y222414D01*
X35329Y223135D01*
X36050Y224076D01*
X36503Y225170D01*
X36527Y225345D01*
D02*
G37*
G36*
X31119D02*
X27712D01*
X27735Y225170D01*
X28189Y224076D01*
X28910Y223135D01*
X29850Y222414D01*
X30945Y221961D01*
X31119Y221938D01*
Y225345D01*
D02*
G37*
G36*
X403067Y221159D02*
X399659D01*
Y217752D01*
X399834Y217775D01*
X400929Y218229D01*
X401869Y218950D01*
X402590Y219890D01*
X403044Y220985D01*
X403067Y221159D01*
D02*
G37*
G36*
X397659D02*
X394252D01*
X394275Y220985D01*
X394729Y219890D01*
X395450Y218950D01*
X396390Y218229D01*
X397485Y217775D01*
X397659Y217752D01*
Y221159D01*
D02*
G37*
G36*
X38119Y216504D02*
Y211597D01*
X41658D01*
Y212097D01*
X41504Y213272D01*
X41050Y214366D01*
X40329Y215306D01*
X39389Y216028D01*
X38294Y216481D01*
X38119Y216504D01*
D02*
G37*
G36*
X36119D02*
X35945Y216481D01*
X34850Y216028D01*
X33910Y215306D01*
X33189Y214366D01*
X32735Y213272D01*
X32581Y212097D01*
Y211597D01*
X36119D01*
Y216504D01*
D02*
G37*
G36*
X401818Y211334D02*
Y206427D01*
X405357D01*
Y206927D01*
X405202Y208102D01*
X404748Y209196D01*
X404027Y210137D01*
X403087Y210858D01*
X401993Y211311D01*
X401818Y211334D01*
D02*
G37*
G36*
X399818Y211334D02*
X399643Y211311D01*
X398548Y210858D01*
X397608Y210137D01*
X396887Y209196D01*
X396434Y208102D01*
X396279Y206927D01*
Y206427D01*
X399818D01*
Y211334D01*
D02*
G37*
G36*
X41658Y209597D02*
X38119D01*
Y204690D01*
X38294Y204713D01*
X39389Y205166D01*
X40329Y205887D01*
X41050Y206827D01*
X41504Y207922D01*
X41658Y209097D01*
Y209597D01*
D02*
G37*
G36*
X36119D02*
X32581D01*
Y209097D01*
X32735Y207922D01*
X33189Y206827D01*
X33910Y205887D01*
X34850Y205166D01*
X35945Y204713D01*
X36119Y204690D01*
Y209597D01*
D02*
G37*
G36*
X405357Y204427D02*
X401818D01*
Y199520D01*
X401993Y199543D01*
X403087Y199996D01*
X404027Y200718D01*
X404748Y201658D01*
X405202Y202752D01*
X405357Y203927D01*
Y204427D01*
D02*
G37*
G36*
X399818D02*
X396279D01*
Y203927D01*
X396434Y202752D01*
X396887Y201658D01*
X397608Y200718D01*
X398548Y199996D01*
X399643Y199543D01*
X399818Y199520D01*
Y204427D01*
D02*
G37*
G36*
X58119Y200674D02*
Y195849D01*
X61225D01*
Y196699D01*
X61085Y197762D01*
X60675Y198752D01*
X60023Y199603D01*
X59172Y200255D01*
X58182Y200665D01*
X58119Y200674D01*
D02*
G37*
G36*
X56119D02*
X56057Y200665D01*
X55066Y200255D01*
X54216Y199603D01*
X53563Y198752D01*
X53153Y197762D01*
X53013Y196699D01*
Y195849D01*
X56119D01*
Y200674D01*
D02*
G37*
G36*
X383471Y201248D02*
X382310Y201134D01*
X381194Y200795D01*
X380165Y200245D01*
X379264Y199505D01*
X378524Y198604D01*
X377974Y197575D01*
X377635Y196459D01*
X377521Y195298D01*
X377635Y194137D01*
X377974Y193021D01*
X378524Y191992D01*
X379264Y191091D01*
X380165Y190351D01*
X381194Y189801D01*
X382310Y189462D01*
X383471Y189348D01*
X384632Y189462D01*
X385748Y189801D01*
X386776Y190351D01*
X387678Y191091D01*
X388418Y191992D01*
X388968Y193021D01*
X389306Y194137D01*
X389421Y195298D01*
X389306Y196459D01*
X388968Y197575D01*
X388418Y198604D01*
X387678Y199505D01*
X386776Y200245D01*
X385748Y200795D01*
X384632Y201134D01*
X383471Y201248D01*
D02*
G37*
G36*
X226778D02*
X225617Y201134D01*
X224501Y200795D01*
X223472Y200245D01*
X222571Y199505D01*
X221831Y198604D01*
X221281Y197575D01*
X220942Y196459D01*
X220828Y195298D01*
X220942Y194137D01*
X221281Y193021D01*
X221831Y191992D01*
X222571Y191091D01*
X223472Y190351D01*
X224501Y189801D01*
X225617Y189462D01*
X226778Y189348D01*
X227939Y189462D01*
X229055Y189801D01*
X230083Y190351D01*
X230985Y191091D01*
X231725Y191992D01*
X232275Y193021D01*
X232613Y194137D01*
X232728Y195298D01*
X232613Y196459D01*
X232275Y197575D01*
X231725Y198604D01*
X230985Y199505D01*
X230083Y200245D01*
X229055Y200795D01*
X227939Y201134D01*
X226778Y201248D01*
D02*
G37*
G36*
X61225Y193849D02*
X58119D01*
Y189024D01*
X58182Y189032D01*
X59172Y189443D01*
X60023Y190095D01*
X60675Y190945D01*
X61085Y191936D01*
X61225Y192998D01*
Y193849D01*
D02*
G37*
G36*
X56119D02*
X53013D01*
Y192998D01*
X53153Y191936D01*
X53563Y190945D01*
X54216Y190095D01*
X55066Y189443D01*
X56057Y189032D01*
X56119Y189024D01*
Y193849D01*
D02*
G37*
G36*
X187119Y200805D02*
X186057Y200665D01*
X185066Y200255D01*
X184216Y199603D01*
X183563Y198752D01*
X183153Y197762D01*
X183013Y196699D01*
Y192998D01*
X183153Y191936D01*
X183563Y190945D01*
X184216Y190095D01*
X185066Y189443D01*
X186057Y189032D01*
X187119Y188892D01*
X188182Y189032D01*
X189172Y189443D01*
X190023Y190095D01*
X190675Y190945D01*
X191085Y191936D01*
X191225Y192998D01*
Y196699D01*
X191085Y197762D01*
X190675Y198752D01*
X190023Y199603D01*
X189172Y200255D01*
X188182Y200665D01*
X187119Y200805D01*
D02*
G37*
G36*
X177119D02*
X176057Y200665D01*
X175066Y200255D01*
X174216Y199603D01*
X173563Y198752D01*
X173153Y197762D01*
X173013Y196699D01*
Y192998D01*
X173153Y191936D01*
X173563Y190945D01*
X174216Y190095D01*
X175066Y189443D01*
X176057Y189032D01*
X177119Y188892D01*
X178182Y189032D01*
X179172Y189443D01*
X180023Y190095D01*
X180675Y190945D01*
X181085Y191936D01*
X181225Y192998D01*
Y196699D01*
X181085Y197762D01*
X180675Y198752D01*
X180023Y199603D01*
X179172Y200255D01*
X178182Y200665D01*
X177119Y200805D01*
D02*
G37*
G36*
X167119D02*
X166057Y200665D01*
X165066Y200255D01*
X164216Y199603D01*
X163563Y198752D01*
X163153Y197762D01*
X163013Y196699D01*
Y192998D01*
X163153Y191936D01*
X163563Y190945D01*
X164216Y190095D01*
X165066Y189443D01*
X166057Y189032D01*
X167119Y188892D01*
X168182Y189032D01*
X169172Y189443D01*
X170023Y190095D01*
X170675Y190945D01*
X171085Y191936D01*
X171225Y192998D01*
Y196699D01*
X171085Y197762D01*
X170675Y198752D01*
X170023Y199603D01*
X169172Y200255D01*
X168182Y200665D01*
X167119Y200805D01*
D02*
G37*
G36*
X157119D02*
X156057Y200665D01*
X155066Y200255D01*
X154216Y199603D01*
X153563Y198752D01*
X153153Y197762D01*
X153013Y196699D01*
Y192998D01*
X153153Y191936D01*
X153563Y190945D01*
X154216Y190095D01*
X155066Y189443D01*
X156057Y189032D01*
X157119Y188892D01*
X158182Y189032D01*
X159172Y189443D01*
X160023Y190095D01*
X160675Y190945D01*
X161085Y191936D01*
X161225Y192998D01*
Y196699D01*
X161085Y197762D01*
X160675Y198752D01*
X160023Y199603D01*
X159172Y200255D01*
X158182Y200665D01*
X157119Y200805D01*
D02*
G37*
G36*
X147119D02*
X146057Y200665D01*
X145066Y200255D01*
X144216Y199603D01*
X143563Y198752D01*
X143153Y197762D01*
X143013Y196699D01*
Y192998D01*
X143153Y191936D01*
X143563Y190945D01*
X144216Y190095D01*
X145066Y189443D01*
X146057Y189032D01*
X147119Y188892D01*
X148182Y189032D01*
X149172Y189443D01*
X150023Y190095D01*
X150675Y190945D01*
X151085Y191936D01*
X151225Y192998D01*
Y196699D01*
X151085Y197762D01*
X150675Y198752D01*
X150023Y199603D01*
X149172Y200255D01*
X148182Y200665D01*
X147119Y200805D01*
D02*
G37*
G36*
X87119D02*
X86057Y200665D01*
X85066Y200255D01*
X84216Y199603D01*
X83563Y198752D01*
X83153Y197762D01*
X83013Y196699D01*
Y192998D01*
X83153Y191936D01*
X83563Y190945D01*
X84216Y190095D01*
X85066Y189443D01*
X86057Y189032D01*
X87119Y188892D01*
X88182Y189032D01*
X89172Y189443D01*
X90023Y190095D01*
X90675Y190945D01*
X91085Y191936D01*
X91225Y192998D01*
Y196699D01*
X91085Y197762D01*
X90675Y198752D01*
X90023Y199603D01*
X89172Y200255D01*
X88182Y200665D01*
X87119Y200805D01*
D02*
G37*
G36*
X77119D02*
X76057Y200665D01*
X75066Y200255D01*
X74216Y199603D01*
X73563Y198752D01*
X73153Y197762D01*
X73013Y196699D01*
Y192998D01*
X73153Y191936D01*
X73563Y190945D01*
X74216Y190095D01*
X75066Y189443D01*
X76057Y189032D01*
X77119Y188892D01*
X78182Y189032D01*
X79172Y189443D01*
X80023Y190095D01*
X80675Y190945D01*
X81085Y191936D01*
X81225Y192998D01*
Y196699D01*
X81085Y197762D01*
X80675Y198752D01*
X80023Y199603D01*
X79172Y200255D01*
X78182Y200665D01*
X77119Y200805D01*
D02*
G37*
G36*
X67119D02*
X66057Y200665D01*
X65066Y200255D01*
X64216Y199603D01*
X63563Y198752D01*
X63153Y197762D01*
X63013Y196699D01*
Y192998D01*
X63153Y191936D01*
X63563Y190945D01*
X64216Y190095D01*
X65066Y189443D01*
X66057Y189032D01*
X67119Y188892D01*
X68182Y189032D01*
X69172Y189443D01*
X70023Y190095D01*
X70675Y190945D01*
X71085Y191936D01*
X71225Y192998D01*
Y196699D01*
X71085Y197762D01*
X70675Y198752D01*
X70023Y199603D01*
X69172Y200255D01*
X68182Y200665D01*
X67119Y200805D01*
D02*
G37*
G36*
X16196Y172888D02*
X16021Y172865D01*
X14927Y172412D01*
X13987Y171690D01*
X13265Y170750D01*
X12812Y169656D01*
X12789Y169481D01*
X16196D01*
Y172888D01*
D02*
G37*
G36*
Y167481D02*
X12789D01*
X12812Y167306D01*
X13265Y166211D01*
X13987Y165271D01*
X14927Y164550D01*
X16021Y164097D01*
X16196Y164074D01*
Y167481D01*
D02*
G37*
G36*
X64724Y174157D02*
X63177Y174004D01*
X61690Y173553D01*
X60319Y172821D01*
X59118Y171835D01*
X58132Y170633D01*
X57399Y169263D01*
X56948Y167775D01*
X56796Y166229D01*
X56948Y164682D01*
X57399Y163195D01*
X58132Y161824D01*
X59118Y160623D01*
X60319Y159637D01*
X61690Y158904D01*
X63177Y158453D01*
X64724Y158301D01*
X66270Y158453D01*
X67757Y158904D01*
X69128Y159637D01*
X70329Y160623D01*
X71315Y161824D01*
X72048Y163195D01*
X72499Y164682D01*
X72652Y166229D01*
X72499Y167775D01*
X72048Y169263D01*
X71315Y170633D01*
X70329Y171835D01*
X69128Y172821D01*
X67757Y173553D01*
X66270Y174004D01*
X64724Y174157D01*
D02*
G37*
G36*
X377959Y172197D02*
X376412Y172045D01*
X374925Y171594D01*
X373554Y170861D01*
X372353Y169876D01*
X371367Y168674D01*
X370635Y167304D01*
X370183Y165816D01*
X370031Y164270D01*
X370183Y162723D01*
X370635Y161236D01*
X371367Y159865D01*
X372353Y158664D01*
X373554Y157678D01*
X374925Y156945D01*
X376412Y156494D01*
X377959Y156342D01*
X379506Y156494D01*
X380993Y156945D01*
X382364Y157678D01*
X383565Y158664D01*
X384551Y159865D01*
X385283Y161236D01*
X385735Y162723D01*
X385887Y164270D01*
X385735Y165816D01*
X385283Y167304D01*
X384551Y168674D01*
X383565Y169876D01*
X382364Y170861D01*
X380993Y171594D01*
X379506Y172045D01*
X377959Y172197D01*
D02*
G37*
G36*
X232290D02*
X230743Y172045D01*
X229256Y171594D01*
X227885Y170861D01*
X226684Y169876D01*
X225698Y168674D01*
X224965Y167304D01*
X224514Y165816D01*
X224362Y164270D01*
X224514Y162723D01*
X224965Y161236D01*
X225698Y159865D01*
X226684Y158664D01*
X227885Y157678D01*
X229256Y156945D01*
X230743Y156494D01*
X232290Y156342D01*
X233836Y156494D01*
X235324Y156945D01*
X236694Y157678D01*
X237896Y158664D01*
X238882Y159865D01*
X239614Y161236D01*
X240065Y162723D01*
X240218Y164270D01*
X240065Y165816D01*
X239614Y167304D01*
X238882Y168674D01*
X237896Y169876D01*
X236694Y170861D01*
X235324Y171594D01*
X233836Y172045D01*
X232290Y172197D01*
D02*
G37*
G36*
X215601Y157888D02*
Y154481D01*
X219008D01*
X218985Y154656D01*
X218532Y155750D01*
X217811Y156690D01*
X216871Y157412D01*
X215776Y157865D01*
X215601Y157888D01*
D02*
G37*
G36*
X213601D02*
X213426Y157865D01*
X212332Y157412D01*
X211392Y156690D01*
X210670Y155750D01*
X210217Y154656D01*
X210194Y154481D01*
X213601D01*
Y157888D01*
D02*
G37*
G36*
X18693Y153445D02*
X16725D01*
Y151477D01*
X18693D01*
Y153445D01*
D02*
G37*
G36*
X14725D02*
X12756D01*
Y151477D01*
X14725D01*
Y153445D01*
D02*
G37*
G36*
X219008Y152481D02*
X215601D01*
Y149074D01*
X215776Y149097D01*
X216871Y149550D01*
X217811Y150271D01*
X218532Y151211D01*
X218985Y152306D01*
X219008Y152481D01*
D02*
G37*
G36*
X213601D02*
X210194D01*
X210217Y152306D01*
X210670Y151211D01*
X211392Y150271D01*
X212332Y149550D01*
X213426Y149097D01*
X213601Y149074D01*
Y152481D01*
D02*
G37*
G36*
X18693Y149477D02*
X16725D01*
Y147508D01*
X18693D01*
Y149477D01*
D02*
G37*
G36*
X14725D02*
X12756D01*
Y147508D01*
X14725D01*
Y149477D01*
D02*
G37*
G36*
X230898Y218093D02*
X137732D01*
X136951Y217938D01*
X136290Y217496D01*
X133887Y215093D01*
X129279D01*
X128498Y214938D01*
X127837Y214496D01*
X125434Y212093D01*
X120521D01*
X119741Y211938D01*
X119079Y211496D01*
X115677Y208094D01*
X115235Y207433D01*
X115080Y206652D01*
Y200261D01*
X115066Y200255D01*
X114216Y199603D01*
X113563Y198752D01*
X113153Y197762D01*
X113013Y196699D01*
Y192998D01*
X113153Y191936D01*
X113563Y190945D01*
X114216Y190095D01*
X115066Y189443D01*
X116057Y189032D01*
X117119Y188892D01*
X118182Y189032D01*
X119172Y189443D01*
X120023Y190095D01*
X120675Y190945D01*
X121085Y191936D01*
X121225Y192998D01*
Y196699D01*
X121085Y197762D01*
X120675Y198752D01*
X120023Y199603D01*
X119172Y200255D01*
X119158Y200261D01*
Y205808D01*
X121366Y208015D01*
X125094D01*
X125330Y207574D01*
X125235Y207433D01*
X125080Y206652D01*
Y200261D01*
X125066Y200255D01*
X124216Y199603D01*
X123563Y198752D01*
X123153Y197762D01*
X123013Y196699D01*
Y192998D01*
X123153Y191936D01*
X123563Y190945D01*
X124216Y190095D01*
X125066Y189443D01*
X126057Y189032D01*
X127119Y188892D01*
X128182Y189032D01*
X129172Y189443D01*
X130023Y190095D01*
X130675Y190945D01*
X131085Y191936D01*
X131225Y192998D01*
Y196699D01*
X131085Y197762D01*
X130675Y198752D01*
X130023Y199603D01*
X129172Y200255D01*
X129158Y200261D01*
Y205808D01*
X131366Y208015D01*
X134865D01*
X135191Y207515D01*
X135080Y206957D01*
Y200261D01*
X135066Y200255D01*
X134216Y199603D01*
X133563Y198752D01*
X133153Y197762D01*
X133013Y196699D01*
Y192998D01*
X133153Y191936D01*
X133563Y190945D01*
X134216Y190095D01*
X135066Y189443D01*
X136057Y189032D01*
X137119Y188892D01*
X138182Y189032D01*
X139172Y189443D01*
X140023Y190095D01*
X140675Y190945D01*
X141085Y191936D01*
X141225Y192998D01*
Y196699D01*
X141085Y197762D01*
X140675Y198752D01*
X140023Y199603D01*
X139172Y200255D01*
X139158Y200261D01*
Y206112D01*
X141061Y208015D01*
X227568D01*
X247025Y188558D01*
X247686Y188116D01*
X248467Y187961D01*
X281379D01*
X289928Y179412D01*
Y152545D01*
X288998D01*
Y145045D01*
X294935D01*
Y152545D01*
X294006D01*
Y162181D01*
X294468Y162372D01*
X299631Y157209D01*
X300292Y156767D01*
X301073Y156612D01*
X301073Y156612D01*
X315471D01*
X317085Y154998D01*
Y152545D01*
X316156D01*
Y145045D01*
X322093D01*
Y152545D01*
X321164D01*
Y155842D01*
X321087Y156226D01*
X321405Y156612D01*
X342628D01*
X344243Y154998D01*
Y152545D01*
X343313D01*
Y145045D01*
X349250D01*
Y152545D01*
X348321D01*
Y155842D01*
X348166Y156623D01*
X347724Y157284D01*
X344915Y160093D01*
X344253Y160535D01*
X343473Y160690D01*
X321403D01*
X319000Y163093D01*
X318338Y163535D01*
X317558Y163690D01*
X303160D01*
X300006Y166844D01*
Y182742D01*
X299851Y183523D01*
X299409Y184184D01*
X286151Y197442D01*
X285490Y197884D01*
X284709Y198039D01*
X251797D01*
X232340Y217496D01*
X232340Y217496D01*
X231678Y217938D01*
X230898Y218093D01*
D02*
G37*
G36*
X328282Y141403D02*
Y137000D01*
X331316D01*
Y137500D01*
X331179Y138544D01*
X330776Y139517D01*
X330135Y140353D01*
X329299Y140994D01*
X328326Y141397D01*
X328282Y141403D01*
D02*
G37*
G36*
X301124D02*
Y137000D01*
X304159D01*
Y137500D01*
X304022Y138544D01*
X303618Y139517D01*
X302977Y140353D01*
X302142Y140994D01*
X301169Y141397D01*
X301124Y141403D01*
D02*
G37*
G36*
X326282D02*
X326238Y141397D01*
X325265Y140994D01*
X324429Y140353D01*
X323788Y139517D01*
X323385Y138544D01*
X323247Y137500D01*
Y137000D01*
X326282D01*
Y141403D01*
D02*
G37*
G36*
X299124D02*
X299080Y141397D01*
X298107Y140994D01*
X297272Y140353D01*
X296630Y139517D01*
X296227Y138544D01*
X296090Y137500D01*
Y137000D01*
X299124D01*
Y141403D01*
D02*
G37*
G36*
X273967D02*
Y137000D01*
X277001D01*
Y137500D01*
X276864Y138544D01*
X276461Y139517D01*
X275820Y140353D01*
X274984Y140994D01*
X274011Y141397D01*
X273967Y141403D01*
D02*
G37*
G36*
X271967D02*
X271923Y141397D01*
X270950Y140994D01*
X270114Y140353D01*
X269473Y139517D01*
X269070Y138544D01*
X268932Y137500D01*
Y137000D01*
X271967D01*
Y141403D01*
D02*
G37*
G36*
X18693Y137697D02*
X16725D01*
Y135729D01*
X18693D01*
Y137697D01*
D02*
G37*
G36*
X14725D02*
X12756D01*
Y135729D01*
X14725D01*
Y137697D01*
D02*
G37*
G36*
X18693Y133729D02*
X16725D01*
Y131760D01*
X18693D01*
Y133729D01*
D02*
G37*
G36*
X14725D02*
X12756D01*
Y131760D01*
X14725D01*
Y133729D01*
D02*
G37*
G36*
X32894Y138479D02*
X26957D01*
Y137964D01*
X26567Y137697D01*
X20630D01*
Y131760D01*
X26567D01*
X26957Y131494D01*
Y130979D01*
X32894D01*
Y138479D01*
D02*
G37*
G36*
X271967Y135000D02*
X268932D01*
Y134500D01*
X269070Y133456D01*
X269473Y132483D01*
X270114Y131647D01*
X270950Y131006D01*
X271923Y130603D01*
X271967Y130597D01*
Y135000D01*
D02*
G37*
G36*
X331316Y135000D02*
X328282D01*
Y130597D01*
X328326Y130603D01*
X329299Y131006D01*
X330135Y131647D01*
X330776Y132483D01*
X331179Y133456D01*
X331316Y134500D01*
Y135000D01*
D02*
G37*
G36*
X304159D02*
X301124D01*
Y130597D01*
X301169Y130603D01*
X302142Y131006D01*
X302977Y131647D01*
X303618Y132483D01*
X304022Y133456D01*
X304159Y134500D01*
Y135000D01*
D02*
G37*
G36*
X326282D02*
X323247D01*
Y134500D01*
X323385Y133456D01*
X323788Y132483D01*
X324429Y131647D01*
X325265Y131006D01*
X326238Y130603D01*
X326282Y130597D01*
Y135000D01*
D02*
G37*
G36*
X299124D02*
X296090D01*
Y134500D01*
X296227Y133456D01*
X296630Y132483D01*
X297272Y131647D01*
X298107Y131006D01*
X299080Y130603D01*
X299124Y130597D01*
Y135000D01*
D02*
G37*
G36*
X277001Y135000D02*
X273967D01*
Y130597D01*
X274011Y130603D01*
X274984Y131006D01*
X275820Y131647D01*
X276461Y132483D01*
X276864Y133456D01*
X277001Y134500D01*
Y135000D01*
D02*
G37*
G36*
X340250Y152545D02*
X334313D01*
Y145045D01*
X335243D01*
Y141500D01*
X333282D01*
Y130500D01*
X341282D01*
Y141500D01*
X339321D01*
Y145045D01*
X340250D01*
Y152545D01*
D02*
G37*
G36*
X313093D02*
X307156D01*
Y145045D01*
X308085D01*
Y141500D01*
X306124D01*
Y130500D01*
X314124D01*
Y141500D01*
X312164D01*
Y145045D01*
X313093D01*
Y152545D01*
D02*
G37*
G36*
X285935D02*
X279998D01*
Y145045D01*
X280928D01*
Y141500D01*
X278967D01*
Y130500D01*
X286967D01*
Y141500D01*
X285006D01*
Y145045D01*
X285935D01*
Y152545D01*
D02*
G37*
G36*
X18693Y121949D02*
X16725D01*
Y119981D01*
X18693D01*
Y121949D01*
D02*
G37*
G36*
X14725D02*
X12756D01*
Y119981D01*
X14725D01*
Y121949D01*
D02*
G37*
G36*
X18693Y117981D02*
X16725D01*
Y116012D01*
X18693D01*
Y117981D01*
D02*
G37*
G36*
X14725D02*
X12756D01*
Y116012D01*
X14725D01*
Y117981D01*
D02*
G37*
G36*
X32894Y122731D02*
X26957D01*
Y122216D01*
X26567Y121949D01*
X20630D01*
Y116012D01*
X26567D01*
X26957Y115746D01*
Y115231D01*
X32894D01*
Y122731D01*
D02*
G37*
G36*
X328282Y111403D02*
Y107000D01*
X331316D01*
Y107500D01*
X331179Y108544D01*
X330776Y109517D01*
X330135Y110353D01*
X329299Y110994D01*
X328326Y111397D01*
X328282Y111403D01*
D02*
G37*
G36*
X301124D02*
Y107000D01*
X304159D01*
Y107500D01*
X304022Y108544D01*
X303618Y109517D01*
X302977Y110353D01*
X302142Y110994D01*
X301169Y111397D01*
X301124Y111403D01*
D02*
G37*
G36*
X326282D02*
X326238Y111397D01*
X325265Y110994D01*
X324429Y110353D01*
X323788Y109517D01*
X323385Y108544D01*
X323247Y107500D01*
Y107000D01*
X326282D01*
Y111403D01*
D02*
G37*
G36*
X299124D02*
X299080Y111397D01*
X298107Y110994D01*
X297272Y110353D01*
X296630Y109517D01*
X296227Y108544D01*
X296090Y107500D01*
Y107000D01*
X299124D01*
Y111403D01*
D02*
G37*
G36*
X273967D02*
Y107000D01*
X277001D01*
Y107500D01*
X276864Y108544D01*
X276461Y109517D01*
X275820Y110353D01*
X274984Y110994D01*
X274011Y111397D01*
X273967Y111403D01*
D02*
G37*
G36*
X271967D02*
X271923Y111397D01*
X270950Y110994D01*
X270114Y110353D01*
X269473Y109517D01*
X269070Y108544D01*
X268932Y107500D01*
Y107000D01*
X271967D01*
Y111403D01*
D02*
G37*
G36*
X412703Y118095D02*
X411790Y117975D01*
X410938Y117622D01*
X410207Y117061D01*
X410171Y117026D01*
X410057Y116965D01*
X409156Y116225D01*
X408416Y115323D01*
X408355Y115209D01*
X404914Y111768D01*
X389204D01*
X388290Y111648D01*
X387439Y111296D01*
X386707Y110734D01*
X370856Y94884D01*
X370296Y94153D01*
X369943Y93301D01*
X369823Y92387D01*
Y79955D01*
X367431D01*
Y68112D01*
X379274D01*
Y79955D01*
X376883D01*
Y90925D01*
X390666Y104708D01*
X396113D01*
Y104549D01*
X403613D01*
Y104708D01*
X406376D01*
X407290Y104828D01*
X408141Y105181D01*
X408873Y105742D01*
X410151Y107020D01*
X411086Y106521D01*
X412202Y106182D01*
X413363Y106068D01*
X414524Y106182D01*
X415640Y106521D01*
X416668Y107070D01*
X417570Y107810D01*
X418310Y108712D01*
X418860Y109741D01*
X419198Y110857D01*
X419313Y112018D01*
X419198Y113178D01*
X418860Y114295D01*
X418310Y115323D01*
X417570Y116225D01*
X416668Y116965D01*
X415640Y117515D01*
X414524Y117853D01*
X413720Y117932D01*
X413617Y117975D01*
X412703Y118095D01*
D02*
G37*
G36*
X202472Y106386D02*
Y101977D01*
X206230D01*
X206099Y102967D01*
X205621Y104122D01*
X204859Y105115D01*
X203867Y105876D01*
X202712Y106355D01*
X202472Y106386D01*
D02*
G37*
G36*
X200472D02*
X200232Y106355D01*
X199076Y105876D01*
X198084Y105115D01*
X197322Y104122D01*
X196844Y102967D01*
X196714Y101977D01*
X200472D01*
Y106386D01*
D02*
G37*
G36*
X46976D02*
Y101977D01*
X50734D01*
X50603Y102967D01*
X50125Y104122D01*
X49363Y105115D01*
X48371Y105876D01*
X47216Y106355D01*
X46976Y106386D01*
D02*
G37*
G36*
X44976D02*
X44736Y106355D01*
X43580Y105876D01*
X42588Y105115D01*
X41827Y104122D01*
X41348Y102967D01*
X41217Y101977D01*
X44976D01*
Y106386D01*
D02*
G37*
G36*
X271967Y105000D02*
X268932D01*
Y104500D01*
X269070Y103456D01*
X269473Y102483D01*
X270114Y101647D01*
X270950Y101006D01*
X271923Y100603D01*
X271967Y100597D01*
Y105000D01*
D02*
G37*
G36*
X331316Y105000D02*
X328282D01*
Y100597D01*
X328326Y100603D01*
X329299Y101006D01*
X330135Y101647D01*
X330776Y102483D01*
X331179Y103456D01*
X331316Y104500D01*
Y105000D01*
D02*
G37*
G36*
X304159D02*
X301124D01*
Y100597D01*
X301169Y100603D01*
X302142Y101006D01*
X302977Y101647D01*
X303618Y102483D01*
X304022Y103456D01*
X304159Y104500D01*
Y105000D01*
D02*
G37*
G36*
X326282D02*
X323247D01*
Y104500D01*
X323385Y103456D01*
X323788Y102483D01*
X324429Y101647D01*
X325265Y101006D01*
X326238Y100603D01*
X326282Y100597D01*
Y105000D01*
D02*
G37*
G36*
X299124D02*
X296090D01*
Y104500D01*
X296227Y103456D01*
X296630Y102483D01*
X297272Y101647D01*
X298107Y101006D01*
X299080Y100603D01*
X299124Y100597D01*
Y105000D01*
D02*
G37*
G36*
X277001Y105000D02*
X273967D01*
Y100597D01*
X274011Y100603D01*
X274984Y101006D01*
X275820Y101647D01*
X276461Y102483D01*
X276864Y103456D01*
X277001Y104500D01*
Y105000D01*
D02*
G37*
G36*
X206230Y99977D02*
X202472D01*
Y95568D01*
X202712Y95599D01*
X203867Y96078D01*
X204859Y96839D01*
X205621Y97831D01*
X206099Y98987D01*
X206230Y99977D01*
D02*
G37*
G36*
X200472D02*
X196714D01*
X196844Y98987D01*
X197322Y97831D01*
X198084Y96839D01*
X199076Y96078D01*
X200232Y95599D01*
X200472Y95568D01*
Y99977D01*
D02*
G37*
G36*
X50734D02*
X46976D01*
Y95568D01*
X47216Y95599D01*
X48371Y96078D01*
X49363Y96839D01*
X50125Y97831D01*
X50603Y98987D01*
X50734Y99977D01*
D02*
G37*
G36*
X44976D02*
X41217D01*
X41348Y98987D01*
X41827Y97831D01*
X42588Y96839D01*
X43580Y96078D01*
X44736Y95599D01*
X44976Y95568D01*
Y99977D01*
D02*
G37*
G36*
X182724Y111157D02*
X181177Y111004D01*
X179690Y110553D01*
X178319Y109821D01*
X177118Y108835D01*
X176132Y107633D01*
X175399Y106263D01*
X174948Y104776D01*
X174796Y103229D01*
X174948Y101682D01*
X175399Y100195D01*
X176132Y98824D01*
X177118Y97623D01*
X178319Y96637D01*
X179690Y95904D01*
X181177Y95453D01*
X182724Y95301D01*
X184270Y95453D01*
X185758Y95904D01*
X187128Y96637D01*
X188330Y97623D01*
X189315Y98824D01*
X190048Y100195D01*
X190499Y101682D01*
X190652Y103229D01*
X190499Y104776D01*
X190048Y106263D01*
X189315Y107633D01*
X188330Y108835D01*
X187128Y109821D01*
X185758Y110553D01*
X184270Y111004D01*
X182724Y111157D01*
D02*
G37*
G36*
X341561Y116456D02*
X266884D01*
X266104Y116301D01*
X265442Y115859D01*
X262775Y113192D01*
X262333Y112530D01*
X262178Y111750D01*
Y79750D01*
X262333Y78969D01*
X262775Y78308D01*
X270775Y70308D01*
X271437Y69866D01*
X272217Y69711D01*
X288153D01*
X294178Y63686D01*
Y47750D01*
X294333Y46969D01*
X294775Y46308D01*
X300155Y40928D01*
X300816Y40486D01*
X301597Y40331D01*
X303018D01*
Y39402D01*
X303994D01*
Y37950D01*
X303068Y37023D01*
X295750D01*
X295032Y36929D01*
X294363Y36652D01*
X293789Y36211D01*
X291313Y33735D01*
X290872Y33161D01*
X290595Y32492D01*
X290500Y31774D01*
Y28438D01*
X289968Y28154D01*
X289067Y27414D01*
X288327Y26512D01*
X287777Y25484D01*
X287438Y24367D01*
X287324Y23207D01*
X287438Y22046D01*
X287777Y20930D01*
X288327Y19901D01*
X289067Y18999D01*
X289968Y18259D01*
X290997Y17710D01*
X292113Y17371D01*
X293274Y17257D01*
X294435Y17371D01*
X295551Y17710D01*
X296580Y18259D01*
X297481Y18999D01*
X298221Y19901D01*
X298771Y20930D01*
X299110Y22046D01*
X299224Y23207D01*
X299110Y24367D01*
X298771Y25484D01*
X298221Y26512D01*
X297481Y27414D01*
X296580Y28154D01*
X296048Y28438D01*
Y30625D01*
X296899Y31476D01*
X304217D01*
X304935Y31571D01*
X305604Y31848D01*
X306178Y32289D01*
X308730Y34840D01*
X309170Y35414D01*
X309447Y36083D01*
X309542Y36801D01*
Y39402D01*
X311081D01*
Y36579D01*
X311175Y35861D01*
X311453Y35192D01*
X311893Y34617D01*
X314222Y32289D01*
X314797Y31848D01*
X315466Y31571D01*
X316183Y31476D01*
X318474D01*
X319192Y31571D01*
X319861Y31848D01*
X320436Y32289D01*
X322706Y34559D01*
X323147Y35133D01*
X323424Y35802D01*
X323518Y36520D01*
Y37838D01*
X323563Y38319D01*
X324018Y38319D01*
X327926D01*
Y45877D01*
X328063Y45969D01*
X328563Y45701D01*
Y38319D01*
X328705D01*
Y31554D01*
X328860Y30774D01*
X329303Y30113D01*
X337940Y21475D01*
X337957Y21306D01*
X337856Y20852D01*
X337042Y20226D01*
X336313Y19277D01*
X335856Y18172D01*
X335699Y16986D01*
X335856Y15800D01*
X336313Y14695D01*
X337042Y13746D01*
X337991Y13017D01*
X339096Y12560D01*
X340282Y12404D01*
X341468Y12560D01*
X342573Y13017D01*
X343522Y13746D01*
X344250Y14695D01*
X344708Y15800D01*
X344864Y16986D01*
X344708Y18172D01*
X344250Y19277D01*
X343522Y20226D01*
X342573Y20955D01*
X342321Y21059D01*
Y22017D01*
X342321Y22017D01*
X342166Y22797D01*
X341724Y23459D01*
X332784Y32399D01*
Y38319D01*
X332926D01*
X332926Y46079D01*
X333369Y46371D01*
X333563Y46266D01*
Y38319D01*
X337926D01*
Y45877D01*
X338063Y45969D01*
X338563Y45701D01*
Y38319D01*
X338705D01*
Y31554D01*
X338861Y30774D01*
X339303Y30113D01*
X347940Y21475D01*
X347956Y21306D01*
X347856Y20852D01*
X347042Y20226D01*
X346313Y19277D01*
X345855Y18172D01*
X345699Y16986D01*
X345855Y15800D01*
X346313Y14695D01*
X347042Y13746D01*
X347991Y13017D01*
X349096Y12560D01*
X350282Y12404D01*
X351468Y12560D01*
X352573Y13017D01*
X353522Y13746D01*
X354251Y14695D01*
X354708Y15800D01*
X354864Y16986D01*
X354708Y18172D01*
X354251Y19277D01*
X353522Y20226D01*
X352573Y20955D01*
X352321Y21059D01*
Y22017D01*
X352321Y22017D01*
X352166Y22797D01*
X351724Y23459D01*
X342784Y32399D01*
Y38319D01*
X342926D01*
Y46421D01*
X338952Y46421D01*
X338949D01*
X338949D01*
X338831Y46421D01*
X338750Y46617D01*
X338624Y46921D01*
X341482Y49780D01*
X345061D01*
X345253Y49318D01*
X344303Y48368D01*
X343861Y47706D01*
X343705Y46926D01*
Y46421D01*
X343563D01*
Y38319D01*
X347926D01*
Y45877D01*
X348063Y45969D01*
X348563Y45701D01*
Y38319D01*
X348705D01*
Y31554D01*
X348861Y30774D01*
X349303Y30112D01*
X357424Y21991D01*
X357233Y21529D01*
X355739D01*
Y12442D01*
X364826D01*
Y21529D01*
X362322D01*
Y22016D01*
X362166Y22797D01*
X361724Y23458D01*
X352784Y32399D01*
Y38319D01*
X352926D01*
Y46280D01*
X352926Y46421D01*
X353267Y46780D01*
X356211D01*
X356992Y46935D01*
X357653Y47377D01*
X363103Y52827D01*
X363545Y53489D01*
X363701Y54269D01*
X363701Y54269D01*
Y71016D01*
X363545Y71796D01*
X363103Y72458D01*
X363103Y72458D01*
X353869Y81692D01*
X353208Y82134D01*
X352427Y82289D01*
X321304D01*
X320382Y83211D01*
X320561Y83711D01*
X335217D01*
X335997Y83866D01*
X336659Y84308D01*
X338659Y86308D01*
X339101Y86969D01*
X339256Y87750D01*
Y92998D01*
X340250D01*
Y100498D01*
X339321D01*
Y101023D01*
X340135Y101647D01*
X340776Y102483D01*
X341179Y103456D01*
X341316Y104500D01*
Y107500D01*
X341179Y108544D01*
X340776Y109517D01*
X340135Y110353D01*
X339299Y110994D01*
X338326Y111397D01*
X337282Y111535D01*
X336238Y111397D01*
X335265Y110994D01*
X334429Y110353D01*
X333788Y109517D01*
X333385Y108544D01*
X333247Y107500D01*
Y104500D01*
X333385Y103456D01*
X333788Y102483D01*
X334429Y101647D01*
X335243Y101023D01*
Y100498D01*
X334313D01*
Y92998D01*
X335178D01*
Y88594D01*
X334372Y87789D01*
X319474D01*
X319474Y87789D01*
X318694Y87634D01*
X318032Y87192D01*
X318032Y87192D01*
X316775Y85934D01*
X316333Y85273D01*
X316178Y84492D01*
Y83826D01*
X315716Y83635D01*
X312164Y87187D01*
Y92998D01*
X313093D01*
Y100498D01*
X312164D01*
Y101023D01*
X312977Y101647D01*
X313618Y102483D01*
X314021Y103456D01*
X314159Y104500D01*
Y107500D01*
X314021Y108544D01*
X313618Y109517D01*
X312977Y110353D01*
X312142Y110994D01*
X311169Y111397D01*
X310124Y111535D01*
X309080Y111397D01*
X308107Y110994D01*
X307272Y110353D01*
X306630Y109517D01*
X306227Y108544D01*
X306090Y107500D01*
Y104500D01*
X306227Y103456D01*
X306630Y102483D01*
X307272Y101647D01*
X308085Y101023D01*
Y100498D01*
X307156D01*
Y92998D01*
X308085D01*
Y87680D01*
X307585Y87413D01*
X307255Y87634D01*
X306474Y87789D01*
X289877D01*
X285168Y92498D01*
X285304Y92998D01*
X285935D01*
Y100498D01*
X285006D01*
Y101023D01*
X285820Y101647D01*
X286461Y102483D01*
X286864Y103456D01*
X287001Y104500D01*
Y107500D01*
X286864Y108544D01*
X286461Y109517D01*
X285820Y110353D01*
X284984Y110994D01*
X284011Y111397D01*
X282967Y111535D01*
X281923Y111397D01*
X280950Y110994D01*
X280114Y110353D01*
X279473Y109517D01*
X279070Y108544D01*
X278932Y107500D01*
Y104500D01*
X279070Y103456D01*
X279473Y102483D01*
X280114Y101647D01*
X280928Y101023D01*
Y100498D01*
X279998D01*
Y92998D01*
X280993D01*
Y91750D01*
X281148Y90969D01*
X281590Y90308D01*
X287590Y84308D01*
X288251Y83866D01*
X289032Y83711D01*
X305630D01*
X316532Y72808D01*
X317194Y72366D01*
X317974Y72211D01*
X317974Y72211D01*
X349097D01*
X353269Y68039D01*
X353093Y67858D01*
X352885Y67681D01*
X352428Y67681D01*
X351745D01*
Y64630D01*
X352926D01*
Y67181D01*
X352926Y67609D01*
X353322Y67926D01*
X353622Y67657D01*
Y57599D01*
X352881Y56858D01*
X339395D01*
X338615Y56703D01*
X337953Y56261D01*
X332551Y50858D01*
X327638D01*
X327638Y50858D01*
X326857Y50703D01*
X326196Y50261D01*
X324303Y48368D01*
X323861Y47706D01*
X323705Y46926D01*
Y46421D01*
X323563D01*
Y44447D01*
X323063Y44218D01*
X322926Y44337D01*
Y46421D01*
X318563D01*
Y44045D01*
X318342Y43757D01*
X318105Y43183D01*
X317605Y43283D01*
Y45339D01*
X303018D01*
Y44409D01*
X302441D01*
X298256Y48594D01*
Y64530D01*
X298101Y65311D01*
X297659Y65972D01*
X290440Y73192D01*
X289778Y73634D01*
X288998Y73789D01*
X273061D01*
X266256Y80594D01*
Y110905D01*
X267729Y112378D01*
X289255D01*
X289436Y112346D01*
X289581Y112298D01*
X289677Y112246D01*
X289742Y112193D01*
X289796Y112128D01*
X289847Y112031D01*
X289896Y111886D01*
X289928Y111706D01*
Y100498D01*
X288998D01*
Y92998D01*
X294935D01*
Y100498D01*
X294006D01*
Y111706D01*
X294038Y111886D01*
X294086Y112031D01*
X294138Y112128D01*
X294191Y112193D01*
X294257Y112246D01*
X294353Y112298D01*
X294498Y112346D01*
X294678Y112378D01*
X316413D01*
X316593Y112346D01*
X316739Y112298D01*
X316835Y112246D01*
X316900Y112193D01*
X316953Y112128D01*
X317005Y112031D01*
X317053Y111886D01*
X317085Y111706D01*
Y100498D01*
X316156D01*
Y92998D01*
X322093D01*
Y100498D01*
X321164D01*
Y111706D01*
X321195Y111886D01*
X321244Y112031D01*
X321296Y112128D01*
X321349Y112193D01*
X321414Y112246D01*
X321510Y112298D01*
X321656Y112346D01*
X321836Y112378D01*
X340716D01*
X344243Y108852D01*
Y100498D01*
X343313D01*
Y92998D01*
X349250D01*
Y100498D01*
X348321D01*
Y109696D01*
X348166Y110477D01*
X347724Y111138D01*
X343003Y115859D01*
X342341Y116301D01*
X341561Y116456D01*
D02*
G37*
G36*
X408030Y102769D02*
X395890D01*
X394976Y102648D01*
X394125Y102296D01*
X393394Y101735D01*
X385721Y94061D01*
X385160Y93330D01*
X384807Y92479D01*
X384687Y91565D01*
Y61712D01*
X380538Y57564D01*
X378116D01*
X377560Y58241D01*
X376658Y58981D01*
X375630Y59530D01*
X374514Y59869D01*
X373353Y59983D01*
X372192Y59869D01*
X371076Y59530D01*
X370047Y58981D01*
X369145Y58241D01*
X368406Y57339D01*
X367856Y56310D01*
X367517Y55194D01*
X367403Y54033D01*
X367517Y52873D01*
X367856Y51756D01*
X368406Y50728D01*
X369145Y49826D01*
X370047Y49086D01*
X371076Y48536D01*
X372192Y48198D01*
X373353Y48083D01*
X374514Y48198D01*
X375630Y48536D01*
X376658Y49086D01*
X377560Y49826D01*
X378116Y50503D01*
X382000D01*
X382914Y50623D01*
X383766Y50976D01*
X384497Y51537D01*
X390713Y57754D01*
X391274Y58485D01*
X391627Y59336D01*
X391747Y60250D01*
Y90103D01*
X397193Y95549D01*
X403613D01*
Y95708D01*
X406568D01*
X407442Y94834D01*
Y86096D01*
X419284D01*
Y97939D01*
X414322D01*
X410526Y101735D01*
X409795Y102296D01*
X408944Y102648D01*
X408030Y102769D01*
D02*
G37*
G36*
X26868Y76560D02*
Y71709D01*
X31719D01*
X31703Y71870D01*
X31365Y72986D01*
X30815Y74015D01*
X30075Y74916D01*
X29173Y75656D01*
X28145Y76206D01*
X27029Y76544D01*
X26868Y76560D01*
D02*
G37*
G36*
X24868Y76560D02*
X24707Y76544D01*
X23591Y76206D01*
X22562Y75656D01*
X21660Y74916D01*
X20921Y74015D01*
X20371Y72986D01*
X20032Y71870D01*
X20016Y71709D01*
X24868D01*
Y76560D01*
D02*
G37*
G36*
X242817Y79955D02*
X230975D01*
Y68112D01*
X242817D01*
Y79955D01*
D02*
G37*
G36*
X24868Y69709D02*
X20016D01*
X20032Y69548D01*
X20371Y68432D01*
X20921Y67403D01*
X21660Y66502D01*
X22562Y65762D01*
X23591Y65212D01*
X24707Y64873D01*
X24868Y64858D01*
Y69709D01*
D02*
G37*
G36*
X31719D02*
X26868D01*
Y64858D01*
X27029Y64873D01*
X28145Y65212D01*
X29173Y65762D01*
X30075Y66502D01*
X30815Y67403D01*
X31365Y68432D01*
X31703Y69548D01*
X31719Y69709D01*
D02*
G37*
G36*
X349745Y67681D02*
X348563D01*
Y64630D01*
X349745D01*
Y67681D01*
D02*
G37*
G36*
X121403Y65291D02*
X120903D01*
Y61753D01*
X125810D01*
X125787Y61927D01*
X125333Y63022D01*
X124612Y63962D01*
X123672Y64683D01*
X122577Y65137D01*
X121403Y65291D01*
D02*
G37*
G36*
X90614D02*
X90114D01*
Y61753D01*
X95021D01*
X94998Y61927D01*
X94545Y63022D01*
X93823Y63962D01*
X92883Y64683D01*
X91789Y65137D01*
X90614Y65291D01*
D02*
G37*
G36*
X59826D02*
X59326D01*
Y61753D01*
X64233D01*
X64210Y61927D01*
X63756Y63022D01*
X63035Y63962D01*
X62095Y64683D01*
X61000Y65137D01*
X59826Y65291D01*
D02*
G37*
G36*
X118903D02*
X118403D01*
X117228Y65137D01*
X116133Y64683D01*
X115193Y63962D01*
X114472Y63022D01*
X114018Y61927D01*
X113995Y61753D01*
X118903D01*
Y65291D01*
D02*
G37*
G36*
X88114D02*
X87614D01*
X86439Y65137D01*
X85345Y64683D01*
X84405Y63962D01*
X83683Y63022D01*
X83230Y61927D01*
X83207Y61753D01*
X88114D01*
Y65291D01*
D02*
G37*
G36*
X57326D02*
X56826D01*
X55651Y65137D01*
X54556Y64683D01*
X53616Y63962D01*
X52895Y63022D01*
X52441Y61927D01*
X52418Y61753D01*
X57326D01*
Y65291D01*
D02*
G37*
G36*
X352926Y62630D02*
X351745D01*
Y59579D01*
X352926D01*
Y62630D01*
D02*
G37*
G36*
X349745D02*
X348563D01*
Y59579D01*
X349745D01*
Y62630D01*
D02*
G37*
G36*
X347926Y67681D02*
X343563D01*
Y59579D01*
X347926D01*
Y67681D01*
D02*
G37*
G36*
X342926D02*
X338563D01*
Y59579D01*
X342926D01*
Y67681D01*
D02*
G37*
G36*
X337926D02*
X333563D01*
Y59579D01*
X337926D01*
Y67681D01*
D02*
G37*
G36*
X332926D02*
X328563D01*
Y59579D01*
X332926D01*
Y67681D01*
D02*
G37*
G36*
X327926D02*
X323563D01*
Y59579D01*
X327926D01*
Y67681D01*
D02*
G37*
G36*
X322926D02*
X318563D01*
Y59579D01*
X322926D01*
Y67681D01*
D02*
G37*
G36*
X125810Y59753D02*
X120903D01*
Y56214D01*
X121403D01*
X122577Y56368D01*
X123672Y56822D01*
X124612Y57543D01*
X125333Y58483D01*
X125787Y59578D01*
X125810Y59753D01*
D02*
G37*
G36*
X118903D02*
X113995D01*
X114018Y59578D01*
X114472Y58483D01*
X115193Y57543D01*
X116133Y56822D01*
X117228Y56368D01*
X118403Y56214D01*
X118903D01*
Y59753D01*
D02*
G37*
G36*
X95021D02*
X90114D01*
Y56214D01*
X90614D01*
X91789Y56368D01*
X92883Y56822D01*
X93823Y57543D01*
X94545Y58483D01*
X94998Y59578D01*
X95021Y59753D01*
D02*
G37*
G36*
X88114D02*
X83207D01*
X83230Y59578D01*
X83683Y58483D01*
X84405Y57543D01*
X85345Y56822D01*
X86439Y56368D01*
X87614Y56214D01*
X88114D01*
Y59753D01*
D02*
G37*
G36*
X64233D02*
X59326D01*
Y56214D01*
X59826D01*
X61000Y56368D01*
X62095Y56822D01*
X63035Y57543D01*
X63756Y58483D01*
X64210Y59578D01*
X64233Y59753D01*
D02*
G37*
G36*
X57326D02*
X52418D01*
X52441Y59578D01*
X52895Y58483D01*
X53616Y57543D01*
X54556Y56822D01*
X55651Y56368D01*
X56826Y56214D01*
X57326D01*
Y59753D01*
D02*
G37*
G36*
X305768Y54339D02*
X303018D01*
Y52370D01*
X305768D01*
Y54339D01*
D02*
G37*
G36*
X317605D02*
X314855D01*
Y52370D01*
X317605D01*
Y54339D01*
D02*
G37*
G36*
Y50370D02*
X314855D01*
Y48402D01*
X317605D01*
Y50370D01*
D02*
G37*
G36*
X312855Y54339D02*
X307768D01*
Y51370D01*
Y48402D01*
X312855D01*
Y51370D01*
Y54339D01*
D02*
G37*
G36*
X305768Y50370D02*
X303018D01*
Y48402D01*
X305768D01*
Y50370D01*
D02*
G37*
G36*
X236896Y59983D02*
X235735Y59869D01*
X234619Y59530D01*
X233591Y58981D01*
X232689Y58241D01*
X231949Y57339D01*
X231399Y56310D01*
X231061Y55194D01*
X230946Y54033D01*
X231061Y52873D01*
X231399Y51756D01*
X231949Y50728D01*
X232689Y49826D01*
X233591Y49086D01*
X234619Y48536D01*
X235735Y48198D01*
X236896Y48083D01*
X238057Y48198D01*
X239173Y48536D01*
X240202Y49086D01*
X241103Y49826D01*
X241843Y50728D01*
X242393Y51756D01*
X242732Y52873D01*
X242846Y54033D01*
X242732Y55194D01*
X242393Y56310D01*
X241843Y57339D01*
X241103Y58241D01*
X240202Y58981D01*
X239173Y59530D01*
X238057Y59869D01*
X236896Y59983D01*
D02*
G37*
G36*
X118341Y35702D02*
X114341D01*
Y31174D01*
X118341D01*
Y35702D01*
D02*
G37*
G36*
X112341D02*
X108341D01*
Y31174D01*
X112341D01*
Y35702D01*
D02*
G37*
G36*
X118341Y29174D02*
X114341D01*
Y24646D01*
X118341D01*
Y29174D01*
D02*
G37*
G36*
X112341D02*
X108341D01*
Y24646D01*
X112341D01*
Y29174D01*
D02*
G37*
G36*
X274274Y29058D02*
Y24207D01*
X279125D01*
X279110Y24367D01*
X278771Y25484D01*
X278221Y26512D01*
X277481Y27414D01*
X276580Y28154D01*
X275551Y28704D01*
X274435Y29042D01*
X274274Y29058D01*
D02*
G37*
G36*
X272274D02*
X272113Y29042D01*
X270997Y28704D01*
X269968Y28154D01*
X269067Y27414D01*
X268327Y26512D01*
X267777Y25484D01*
X267438Y24367D01*
X267423Y24207D01*
X272274D01*
Y29058D01*
D02*
G37*
G36*
X414386Y32457D02*
Y20685D01*
X426158D01*
X426078Y21695D01*
X425607Y23656D01*
X424836Y25519D01*
X423782Y27239D01*
X422473Y28772D01*
X420939Y30081D01*
X419220Y31135D01*
X417357Y31907D01*
X415396Y32377D01*
X414386Y32457D01*
D02*
G37*
G36*
X412386D02*
X411376Y32377D01*
X409415Y31907D01*
X407552Y31135D01*
X405832Y30081D01*
X404299Y28772D01*
X402989Y27239D01*
X401936Y25519D01*
X401164Y23656D01*
X400693Y21695D01*
X400614Y20685D01*
X412386D01*
Y32457D01*
D02*
G37*
G36*
X20685D02*
Y20685D01*
X32457D01*
X32377Y21695D01*
X31907Y23656D01*
X31135Y25519D01*
X30081Y27239D01*
X28772Y28772D01*
X27239Y30081D01*
X25519Y31135D01*
X23656Y31907D01*
X21695Y32377D01*
X20685Y32457D01*
D02*
G37*
G36*
X18685D02*
X17675Y32377D01*
X15714Y31907D01*
X13851Y31135D01*
X12132Y30081D01*
X10598Y28772D01*
X9289Y27239D01*
X8235Y25519D01*
X7463Y23656D01*
X6993Y21695D01*
X6913Y20685D01*
X18685D01*
Y32457D01*
D02*
G37*
G36*
X279125Y22207D02*
X274274D01*
Y17355D01*
X274435Y17371D01*
X275551Y17710D01*
X276580Y18259D01*
X277481Y18999D01*
X278221Y19901D01*
X278771Y20930D01*
X279110Y22046D01*
X279125Y22207D01*
D02*
G37*
G36*
X272274D02*
X267423D01*
X267438Y22046D01*
X267777Y20930D01*
X268327Y19901D01*
X269067Y18999D01*
X269968Y18259D01*
X270997Y17710D01*
X272113Y17371D01*
X272274Y17355D01*
Y22207D01*
D02*
G37*
G36*
X31789Y56630D02*
X19947D01*
Y44788D01*
X31789D01*
Y46674D01*
X36100D01*
X43140Y39634D01*
Y29494D01*
X43140Y29494D01*
X43278Y28450D01*
X43681Y27477D01*
X44322Y26641D01*
X54164Y16799D01*
X55000Y16158D01*
X55973Y15755D01*
X57017Y15617D01*
X75793D01*
X76576Y14597D01*
X77690Y13743D01*
X78986Y13206D01*
X80378Y13023D01*
X81770Y13206D01*
X83066Y13743D01*
X84180Y14597D01*
X85034Y15711D01*
X85129Y15939D01*
X95627D01*
X95722Y15711D01*
X96576Y14597D01*
X97690Y13743D01*
X98986Y13206D01*
X100378Y13023D01*
X101770Y13206D01*
X103066Y13743D01*
X104180Y14597D01*
X105034Y15711D01*
X105571Y17008D01*
X105755Y18399D01*
Y21549D01*
X105571Y22940D01*
X105034Y24237D01*
X104180Y25351D01*
X103066Y26205D01*
X101770Y26742D01*
X100378Y26926D01*
X98986Y26742D01*
X97690Y26205D01*
X96576Y25351D01*
X95722Y24237D01*
X95627Y24009D01*
X85129D01*
X85034Y24237D01*
X84180Y25351D01*
X83066Y26205D01*
X81770Y26742D01*
X80378Y26926D01*
X78986Y26742D01*
X77690Y26205D01*
X76576Y25351D01*
X75722Y24237D01*
X75493Y23686D01*
X58688D01*
X51209Y31165D01*
Y41305D01*
X51072Y42349D01*
X50669Y43322D01*
X50028Y44158D01*
X40624Y53562D01*
X39788Y54203D01*
X38815Y54606D01*
X37771Y54743D01*
X37771Y54743D01*
X31789D01*
Y56630D01*
D02*
G37*
G36*
X314825Y21529D02*
X305739D01*
Y12443D01*
X314825D01*
Y21529D01*
D02*
G37*
G36*
X330282Y21569D02*
X329096Y21413D01*
X327991Y20955D01*
X327042Y20226D01*
X326313Y19277D01*
X325855Y18172D01*
X325699Y16986D01*
X325855Y15800D01*
X326313Y14695D01*
X327042Y13746D01*
X327991Y13017D01*
X329096Y12560D01*
X330282Y12404D01*
X331468Y12560D01*
X332573Y13017D01*
X333522Y13746D01*
X334250Y14695D01*
X334708Y15800D01*
X334864Y16986D01*
X334708Y18172D01*
X334250Y19277D01*
X333522Y20226D01*
X332573Y20955D01*
X331468Y21413D01*
X330282Y21569D01*
D02*
G37*
G36*
X320282D02*
X319096Y21413D01*
X317991Y20955D01*
X317042Y20226D01*
X316313Y19277D01*
X315856Y18172D01*
X315699Y16986D01*
X315856Y15800D01*
X316313Y14695D01*
X317042Y13746D01*
X317991Y13017D01*
X319096Y12560D01*
X320282Y12404D01*
X321468Y12560D01*
X322573Y13017D01*
X323522Y13746D01*
X324251Y14695D01*
X324708Y15800D01*
X324864Y16986D01*
X324708Y18172D01*
X324251Y19277D01*
X323522Y20226D01*
X322573Y20955D01*
X321468Y21413D01*
X320282Y21569D01*
D02*
G37*
G36*
X118341Y15302D02*
X114341D01*
Y10774D01*
X118341D01*
Y15302D01*
D02*
G37*
G36*
X112341D02*
X108341D01*
Y10774D01*
X112341D01*
Y15302D01*
D02*
G37*
G36*
X377959Y26528D02*
X376412Y26376D01*
X374925Y25925D01*
X373554Y25192D01*
X372353Y24206D01*
X371367Y23005D01*
X370635Y21634D01*
X370183Y20147D01*
X370031Y18600D01*
X370183Y17054D01*
X370635Y15566D01*
X371367Y14196D01*
X372353Y12994D01*
X373554Y12008D01*
X374925Y11276D01*
X376412Y10825D01*
X377959Y10672D01*
X379506Y10825D01*
X380993Y11276D01*
X382364Y12008D01*
X383565Y12994D01*
X384551Y14196D01*
X385283Y15566D01*
X385735Y17054D01*
X385887Y18600D01*
X385735Y20147D01*
X385283Y21634D01*
X384551Y23005D01*
X383565Y24206D01*
X382364Y25192D01*
X380993Y25925D01*
X379506Y26376D01*
X377959Y26528D01*
D02*
G37*
G36*
X232290D02*
X230743Y26376D01*
X229256Y25925D01*
X227885Y25192D01*
X226684Y24206D01*
X225698Y23005D01*
X224965Y21634D01*
X224514Y20147D01*
X224362Y18600D01*
X224514Y17054D01*
X224965Y15566D01*
X225698Y14196D01*
X226684Y12994D01*
X227885Y12008D01*
X229256Y11276D01*
X230743Y10825D01*
X232290Y10672D01*
X233836Y10825D01*
X235324Y11276D01*
X236694Y12008D01*
X237896Y12994D01*
X238882Y14196D01*
X239614Y15566D01*
X240065Y17054D01*
X240218Y18600D01*
X240065Y20147D01*
X239614Y21634D01*
X238882Y23005D01*
X237896Y24206D01*
X236694Y25192D01*
X235324Y25925D01*
X233836Y26376D01*
X232290Y26528D01*
D02*
G37*
G36*
X402687Y157519D02*
X401906Y157364D01*
X401245Y156922D01*
X395733Y151410D01*
X395291Y150748D01*
X395136Y149968D01*
Y141694D01*
X382221Y128779D01*
X228735D01*
X227954Y128624D01*
X227293Y128182D01*
X213843Y114732D01*
X213401Y114070D01*
X213246Y113290D01*
Y56751D01*
X213401Y55971D01*
X213843Y55309D01*
X214505Y54867D01*
X215285Y54712D01*
X216065Y54867D01*
X216727Y55309D01*
X217169Y55971D01*
X217324Y56751D01*
Y112445D01*
X229579Y124700D01*
X383065D01*
X383846Y124856D01*
X384507Y125298D01*
X398617Y139407D01*
X399059Y140069D01*
X399214Y140849D01*
Y149123D01*
X403531Y153441D01*
X417272D01*
X423088Y147624D01*
Y55931D01*
X413653Y46495D01*
X398431D01*
X397651Y46340D01*
X396990Y45898D01*
X388328Y37237D01*
X387886Y36575D01*
X387731Y35795D01*
Y14796D01*
X381635Y8700D01*
X225185D01*
X217324Y16561D01*
Y22803D01*
X217169Y23583D01*
X216727Y24245D01*
X216065Y24687D01*
X215285Y24842D01*
X214505Y24687D01*
X213843Y24245D01*
X213401Y23583D01*
X213246Y22803D01*
Y15716D01*
X213401Y14936D01*
X213843Y14274D01*
X222898Y5219D01*
X223560Y4777D01*
X224340Y4622D01*
X382479D01*
X383260Y4777D01*
X383921Y5219D01*
X391212Y12510D01*
X391654Y13171D01*
X391809Y13951D01*
X391809Y13952D01*
Y34950D01*
X399276Y42417D01*
X414498D01*
X415278Y42572D01*
X415940Y43014D01*
X426569Y53644D01*
X427011Y54306D01*
X427167Y55086D01*
Y148469D01*
X427011Y149249D01*
X426569Y149911D01*
X419558Y156922D01*
X418897Y157364D01*
X418117Y157519D01*
X402687D01*
X402687Y157519D01*
D02*
G37*
G36*
X426158Y18685D02*
X414386D01*
Y6913D01*
X415396Y6993D01*
X417357Y7463D01*
X419220Y8235D01*
X420939Y9289D01*
X422473Y10598D01*
X423782Y12132D01*
X424836Y13851D01*
X425607Y15714D01*
X426078Y17675D01*
X426158Y18685D01*
D02*
G37*
G36*
X412386D02*
X400614D01*
X400693Y17675D01*
X401164Y15714D01*
X401936Y13851D01*
X402989Y12132D01*
X404299Y10598D01*
X405832Y9289D01*
X407552Y8235D01*
X409415Y7463D01*
X411376Y6993D01*
X412386Y6913D01*
Y18685D01*
D02*
G37*
G36*
X32457D02*
X20685D01*
Y6913D01*
X21695Y6993D01*
X23656Y7463D01*
X25519Y8235D01*
X27239Y9289D01*
X28772Y10598D01*
X30081Y12132D01*
X31135Y13851D01*
X31907Y15714D01*
X32377Y17675D01*
X32457Y18685D01*
D02*
G37*
G36*
X18685D02*
X6913D01*
X6993Y17675D01*
X7463Y15714D01*
X8235Y13851D01*
X9289Y12132D01*
X10598Y10598D01*
X12132Y9289D01*
X13851Y8235D01*
X15714Y7463D01*
X17675Y6993D01*
X18685Y6913D01*
Y18685D01*
D02*
G37*
G36*
X118341Y8774D02*
X114341D01*
Y4247D01*
X118341D01*
Y8774D01*
D02*
G37*
G36*
X112341D02*
X108341D01*
Y4247D01*
X112341D01*
Y8774D01*
D02*
G37*
%LPD*%
G36*
X101383Y403036D02*
X101443Y402696D01*
X101543Y402396D01*
X101683Y402136D01*
X101863Y401916D01*
X102083Y401736D01*
X102343Y401596D01*
X102643Y401496D01*
X102983Y401436D01*
X103363Y401416D01*
Y399416D01*
X102983Y399396D01*
X102643Y399336D01*
X102343Y399236D01*
X102083Y399096D01*
X101863Y398916D01*
X101683Y398696D01*
X101543Y398436D01*
X101443Y398136D01*
X101383Y397796D01*
X101363Y397416D01*
X99363Y400416D01*
X101363Y403416D01*
X101383Y403036D01*
D02*
G37*
G36*
X66383Y369453D02*
X66443Y369113D01*
X66543Y368813D01*
X66683Y368553D01*
X66863Y368333D01*
X67083Y368153D01*
X67343Y368013D01*
X67643Y367913D01*
X67983Y367853D01*
X68363Y367833D01*
Y365833D01*
X67983Y365813D01*
X67643Y365753D01*
X67343Y365653D01*
X67083Y365513D01*
X66863Y365333D01*
X66683Y365113D01*
X66543Y364853D01*
X66443Y364553D01*
X66383Y364213D01*
X66363Y363833D01*
X64363Y366833D01*
X66363Y369833D01*
X66383Y369453D01*
D02*
G37*
G36*
X137883Y368796D02*
X137943Y368456D01*
X138043Y368156D01*
X138183Y367896D01*
X138363Y367676D01*
X138583Y367496D01*
X138843Y367356D01*
X139143Y367256D01*
X139483Y367196D01*
X139863Y367176D01*
Y365176D01*
X139483Y365156D01*
X139143Y365096D01*
X138843Y364996D01*
X138583Y364856D01*
X138363Y364676D01*
X138183Y364456D01*
X138043Y364196D01*
X137943Y363896D01*
X137883Y363556D01*
X137863Y363176D01*
X135863Y366176D01*
X137863Y369176D01*
X137883Y368796D01*
D02*
G37*
G36*
X371909Y355103D02*
X372014Y354508D01*
X372189Y353983D01*
X372434Y353528D01*
X372749Y353143D01*
X373134Y352828D01*
X373589Y352583D01*
X374114Y352408D01*
X374709Y352303D01*
X375374Y352268D01*
Y348768D01*
X374709Y348733D01*
X374114Y348628D01*
X373589Y348453D01*
X373134Y348208D01*
X372749Y347893D01*
X372434Y347508D01*
X372189Y347053D01*
X372014Y346528D01*
X371909Y345933D01*
X371874Y345268D01*
X368374Y350518D01*
X371874Y355768D01*
X371909Y355103D01*
D02*
G37*
G36*
X101883Y335138D02*
X101943Y334798D01*
X102043Y334498D01*
X102183Y334238D01*
X102363Y334018D01*
X102583Y333838D01*
X102843Y333698D01*
X103143Y333598D01*
X103483Y333538D01*
X103863Y333518D01*
Y331518D01*
X103483Y331498D01*
X103143Y331438D01*
X102843Y331338D01*
X102583Y331198D01*
X102363Y331018D01*
X102183Y330798D01*
X102043Y330538D01*
X101943Y330238D01*
X101883Y329898D01*
X101863Y329518D01*
X99863Y332518D01*
X101863Y335518D01*
X101883Y335138D01*
D02*
G37*
G36*
X322124Y113417D02*
X321744Y113397D01*
X321404Y113337D01*
X321104Y113237D01*
X320844Y113097D01*
X320624Y112917D01*
X320444Y112697D01*
X320304Y112437D01*
X320204Y112137D01*
X320144Y111797D01*
X320124Y111417D01*
X318124D01*
X318104Y111797D01*
X318044Y112137D01*
X317944Y112437D01*
X317804Y112697D01*
X317624Y112917D01*
X317404Y113097D01*
X317144Y113237D01*
X316844Y113337D01*
X316504Y113397D01*
X316124Y113417D01*
X319124Y115417D01*
X322124Y113417D01*
D02*
G37*
G36*
X294967D02*
X294587Y113397D01*
X294247Y113337D01*
X293947Y113237D01*
X293687Y113097D01*
X293467Y112917D01*
X293287Y112697D01*
X293147Y112437D01*
X293047Y112137D01*
X292987Y111797D01*
X292967Y111417D01*
X290967D01*
X290947Y111797D01*
X290887Y112137D01*
X290787Y112437D01*
X290647Y112697D01*
X290467Y112917D01*
X290247Y113097D01*
X289987Y113237D01*
X289687Y113337D01*
X289347Y113397D01*
X288967Y113417D01*
X291967Y115417D01*
X294967Y113417D01*
D02*
G37*
D10*
X70863Y366833D02*
D03*
X79863D02*
D03*
X105863Y332518D02*
D03*
X114863D02*
D03*
X105863Y400416D02*
D03*
X114863D02*
D03*
X142363Y366833D02*
D03*
X151363D02*
D03*
X310684Y369707D02*
D03*
X319684D02*
D03*
X255566D02*
D03*
X264565D02*
D03*
X291967Y148795D02*
D03*
X282967D02*
D03*
X346282D02*
D03*
X337282D02*
D03*
X319124D02*
D03*
X310124D02*
D03*
X291967Y96748D02*
D03*
X282967D02*
D03*
X346282D02*
D03*
X337282D02*
D03*
X319124D02*
D03*
X310124D02*
D03*
X29925Y118981D02*
D03*
X38925D02*
D03*
X29925Y134729D02*
D03*
X38925D02*
D03*
X29925Y150477D02*
D03*
X38925D02*
D03*
X18434Y305676D02*
D03*
X27434D02*
D03*
D11*
X320744Y63630D02*
D03*
X325745D02*
D03*
X330745D02*
D03*
X335745D02*
D03*
X340744D02*
D03*
X345744D02*
D03*
X350745D02*
D03*
X320744Y42370D02*
D03*
X325745D02*
D03*
X330745D02*
D03*
X335745D02*
D03*
X340744D02*
D03*
X345744D02*
D03*
X350745D02*
D03*
X260065Y380534D02*
D03*
X265065D02*
D03*
X295065Y401794D02*
D03*
Y380534D02*
D03*
X290065D02*
D03*
X285065D02*
D03*
X280065D02*
D03*
X275065D02*
D03*
X270065D02*
D03*
X290065Y401794D02*
D03*
X285065D02*
D03*
X280065D02*
D03*
X275065D02*
D03*
X270065D02*
D03*
X265065D02*
D03*
X260065D02*
D03*
X315183Y380534D02*
D03*
X320183D02*
D03*
X350184Y401794D02*
D03*
Y380534D02*
D03*
X345183D02*
D03*
X340183D02*
D03*
X335184D02*
D03*
X330184D02*
D03*
X325184D02*
D03*
X345183Y401794D02*
D03*
X340183D02*
D03*
X335184D02*
D03*
X330184D02*
D03*
X325184D02*
D03*
X320183D02*
D03*
X315183D02*
D03*
D12*
X24735Y181849D02*
D03*
Y194849D02*
D03*
X325183Y309581D02*
D03*
Y322582D02*
D03*
D13*
X258795Y326581D02*
D03*
Y317581D02*
D03*
X313855Y51370D02*
D03*
Y42370D02*
D03*
X306768Y51370D02*
D03*
Y42370D02*
D03*
X399863Y107518D02*
D03*
Y98518D02*
D03*
D14*
X131341Y30174D02*
D03*
X113341D02*
D03*
X131341Y9774D02*
D03*
X113341D02*
D03*
X36363Y295018D02*
D03*
X18363D02*
D03*
D15*
X15725Y134729D02*
D03*
X23599D02*
D03*
X15725Y150477D02*
D03*
X23599D02*
D03*
X15725Y118981D02*
D03*
X23599D02*
D03*
D16*
X65363Y366833D02*
Y379333D01*
Y354333D02*
Y366833D01*
X70863D01*
X136863Y310471D02*
Y353676D01*
X100363Y375149D02*
Y387916D01*
X100863Y310637D02*
Y320018D01*
Y332518D02*
X106363D01*
X100863Y320018D02*
Y332518D01*
Y345018D01*
X136863Y366176D02*
X142363D01*
X136863Y353676D02*
Y366176D01*
Y378676D01*
X100363Y400416D02*
X105863D01*
X100363Y387916D02*
Y400416D01*
Y412916D01*
X113863Y341671D02*
Y365891D01*
Y341671D02*
X114863Y340671D01*
Y332518D02*
Y340671D01*
X110363Y369391D02*
X113863Y365891D01*
X110363Y400416D02*
X114863D01*
X110363Y369391D02*
Y400416D01*
Y416368D01*
X79863Y366833D02*
Y374986D01*
X78863Y375986D02*
X79863Y374986D01*
X78863Y375986D02*
Y414242D01*
X150363Y375986D02*
Y414242D01*
Y375986D02*
X151363Y374986D01*
Y366833D02*
Y374986D01*
X144406Y420199D02*
X150363Y414242D01*
X114193Y420199D02*
X144406D01*
X110363Y416368D02*
X114193Y420199D01*
X106532D02*
X110363Y416368D01*
X84820Y420199D02*
X106532D01*
X78863Y414242D02*
X84820Y420199D01*
X139334Y308000D02*
X145091D01*
X136863Y310471D02*
X139334Y308000D01*
X136863Y310471D02*
Y353676D01*
Y378676D01*
X145091Y308000D02*
X148091Y305000D01*
X153849D01*
X113500Y311000D02*
X126334D01*
X110508Y313992D02*
X113500Y311000D01*
X110508Y313992D02*
Y365004D01*
X126334Y311000D02*
X129334Y308000D01*
X133849Y305000D02*
X137119Y301729D01*
X128092Y305000D02*
X133849D01*
X127119Y294849D02*
Y301729D01*
X123849Y305000D02*
X127119Y301729D01*
X125092Y308000D02*
X128092Y305000D01*
X129334Y308000D02*
X135091D01*
X138092Y305000D01*
X143849D01*
X100363Y375149D02*
Y387916D01*
Y375149D02*
X110508Y365004D01*
X100363Y387916D02*
Y412916D01*
X100863Y310637D02*
Y320018D01*
Y310637D02*
X103500Y308000D01*
X125092D01*
X157119Y294849D02*
Y301729D01*
X153849Y305000D02*
X157119Y301729D01*
X147119Y294849D02*
Y301729D01*
X143849Y305000D02*
X147119Y301729D01*
X137119Y294849D02*
Y301729D01*
X81018Y305000D02*
X123849D01*
X65363Y320655D02*
X81018Y305000D01*
X100863Y320018D02*
Y345018D01*
X65363Y320655D02*
Y354333D01*
X24697Y175791D02*
Y181849D01*
X24735Y194849D02*
X47119D01*
X24696D02*
X24735D01*
X392803Y307317D02*
X406247D01*
X389363Y303876D02*
X392803Y307317D01*
X389363Y291775D02*
Y303876D01*
X106620Y215597D02*
X120041Y229018D01*
X97119Y211853D02*
X100863Y215597D01*
X106620D01*
X97119Y194849D02*
Y211853D01*
X107119D02*
X121283Y226018D01*
X107119Y194849D02*
Y211853D01*
X121283Y226018D02*
X232363Y226018D01*
X120041Y229018D02*
X231120Y229018D01*
X255120Y253018D01*
X232363Y226018D02*
X256363Y250018D01*
X255120Y253018D02*
X346363Y253018D01*
X256363Y250018D02*
X347605Y250018D01*
X389363Y291775D01*
X346363Y253018D02*
X386363Y293018D01*
Y312518D01*
X391162Y317317D01*
X406247D01*
X38875Y134729D02*
Y139934D01*
X23599Y150477D02*
X29925D01*
X23599Y134729D02*
X29925D01*
X23599Y118981D02*
X29925D01*
X19172Y177023D02*
Y188349D01*
Y177023D02*
X23133Y173062D01*
Y160929D02*
Y173062D01*
X34550Y144259D02*
Y155085D01*
X31462Y158173D02*
X34550Y155085D01*
X25889Y158173D02*
X31462D01*
X23133Y160929D02*
X25889Y158173D01*
X34550Y144259D02*
X38875Y139934D01*
X26183Y162260D02*
Y174304D01*
X24697Y175791D02*
X26183Y174304D01*
X38926Y150477D02*
Y155029D01*
X32782Y161173D02*
X38926Y155029D01*
X27270Y161173D02*
X32782D01*
X26183Y162260D02*
X27270Y161173D01*
X38887Y118981D02*
X58287D01*
X228865Y322081D02*
X252724D01*
X225383Y318600D02*
X228865Y322081D01*
X222383Y319842D02*
X227622Y325081D01*
X219383Y321085D02*
X226379Y328081D01*
X254397Y312908D02*
X267777D01*
X252724Y314581D02*
X254397Y312908D01*
X252724Y314581D02*
Y322081D01*
X267777Y312908D02*
X269450Y314581D01*
X335893D01*
X226379Y328081D02*
X250781D01*
X258795Y317581D02*
X334650D01*
X344212Y327143D01*
Y366523D01*
X335893Y314581D02*
X347212Y325900D01*
Y367766D01*
X347246Y395585D02*
X356267D01*
X360124Y399443D01*
Y420101D01*
X345183Y397647D02*
Y401794D01*
Y397647D02*
X347246Y395585D01*
X255566Y369707D02*
Y389988D01*
X253276Y392277D02*
X255566Y389988D01*
X243769Y392277D02*
X253276D01*
X258003Y395585D02*
X260065Y397647D01*
X244704Y395585D02*
X258003D01*
X240124Y400165D02*
X244704Y395585D01*
X237701Y398345D02*
X243769Y392277D01*
X297212Y395585D02*
X300124Y398498D01*
X267127Y395585D02*
X297212D01*
X265065Y397647D02*
X267127Y395585D01*
X300124Y398498D02*
Y420101D01*
X265065Y397647D02*
Y401794D01*
X264565Y369707D02*
Y374750D01*
X264929Y375113D01*
Y380397D01*
X265065Y380534D01*
X298393Y369707D02*
X310684D01*
X295065Y373035D02*
X298393Y369707D01*
X295065Y373035D02*
Y380534D01*
X319684Y369707D02*
X322802D01*
X325184Y372089D01*
Y380534D01*
X285065Y374794D02*
Y380534D01*
Y374794D02*
X292093Y367766D01*
X280065Y375552D02*
X289093Y366523D01*
X277588Y373786D02*
X286093Y365281D01*
X268972Y326581D02*
X270472Y325081D01*
X258795Y326581D02*
X268972D01*
X253523D02*
X258795D01*
X250781Y328081D02*
X254280Y331581D01*
X269907D01*
X252023Y325081D02*
X253523Y326581D01*
X252724Y322081D02*
X286582D01*
X269907Y331581D02*
X273407Y328081D01*
X270472Y325081D02*
X285339D01*
X273407Y328081D02*
X284096D01*
X286093Y330079D01*
Y365281D01*
X285339Y325081D02*
X289093Y328836D01*
Y366523D01*
X286582Y322081D02*
X292093Y327593D01*
Y367766D01*
X295065Y380534D02*
X295093Y380506D01*
X335184Y375552D02*
Y380534D01*
Y375552D02*
X344212Y366523D01*
X340183Y374794D02*
Y380534D01*
Y374794D02*
X347212Y367766D01*
X280065Y375552D02*
Y380534D01*
X271752Y373786D02*
X277588D01*
X270065Y375473D02*
X271752Y373786D01*
X270065Y375473D02*
Y380534D01*
X290065D02*
Y389684D01*
X234220Y398345D02*
X237701D01*
X230124Y402440D02*
X234220Y398345D01*
X230124Y402440D02*
Y420101D01*
X260065Y397647D02*
Y401794D01*
X240124Y400165D02*
Y420101D01*
X275164Y412125D02*
X280065Y407224D01*
X272409Y412125D02*
X275164D01*
X270124Y414409D02*
X272409Y412125D01*
X280065Y401794D02*
Y407224D01*
X275065Y401794D02*
Y406712D01*
X273046Y408731D02*
X275065Y406712D01*
X271560Y408731D02*
X273046D01*
X270065Y401794D02*
Y405982D01*
X267711Y408337D02*
X270065Y405982D01*
X261007Y408337D02*
X267711D01*
X268953Y411337D02*
X271560Y408731D01*
X262250Y411337D02*
X268953D01*
X270124Y414409D02*
Y420101D01*
X250124Y413543D02*
Y420101D01*
Y413543D02*
X253117Y410550D01*
X258795D01*
X260124Y413463D02*
X262250Y411337D01*
X260124Y413463D02*
Y420101D01*
X258795Y410550D02*
X261007Y408337D01*
X280124Y412754D02*
Y420101D01*
Y412754D02*
X285065Y407813D01*
Y401794D02*
Y407813D01*
X290065Y420042D02*
X290124Y420101D01*
X290065Y401794D02*
Y420042D01*
X342487Y411337D02*
X347999D01*
X350124Y413463D01*
Y420101D01*
X338157Y411731D02*
X340124Y413699D01*
X334613Y411731D02*
X338157D01*
X330184Y407301D02*
X334613Y411731D01*
X339338Y408188D02*
X342487Y411337D01*
X336188Y408188D02*
X339338D01*
X335184Y407183D02*
X336188Y408188D01*
X330184Y401794D02*
Y407301D01*
X335184Y401794D02*
Y407183D01*
X315183Y401794D02*
Y407932D01*
X310124Y412991D02*
X315183Y407932D01*
X310124Y412991D02*
Y420101D01*
X325184Y401794D02*
Y407813D01*
X330124Y412754D01*
Y420101D01*
X340124Y413699D02*
Y420101D01*
X320124D02*
X320183Y420042D01*
Y401794D02*
Y420042D01*
X227622Y325081D02*
X252023D01*
X225383Y286991D02*
Y318600D01*
X222383Y288234D02*
Y319842D01*
X219383Y289476D02*
Y321085D01*
X205383Y275476D02*
X219383Y289476D01*
X207868Y269476D02*
X225383Y286991D01*
X206626Y272476D02*
X222383Y288234D01*
X127119Y275476D02*
X205383Y275476D01*
X127119Y269476D02*
X207868Y269476D01*
X122619Y275476D02*
X127119D01*
X121377Y272476D02*
X206626Y272476D01*
X107119Y286734D02*
Y294849D01*
Y286734D02*
X121377Y272476D01*
X104119Y285491D02*
X120134Y269476D01*
X127119D01*
X97119Y288740D02*
Y294849D01*
Y288740D02*
X100368Y285491D01*
X104119D01*
X117119Y280976D02*
X122619Y275476D01*
X117119Y280976D02*
Y294849D01*
X345183Y380534D02*
Y389684D01*
X340638Y51819D02*
X354969D01*
X335745Y46926D02*
X340638Y51819D01*
X339395Y54819D02*
X353726D01*
X333395Y48819D02*
X339395Y54819D01*
X327638Y48819D02*
X333395D01*
X335745Y42370D02*
Y46926D01*
X347638Y48819D02*
X356211D01*
X345744Y46926D02*
X347638Y48819D01*
X345744Y42370D02*
Y46926D01*
X325745D02*
X327638Y48819D01*
X325745Y42370D02*
Y46926D01*
X353726Y54819D02*
X355661Y56754D01*
X354969Y51819D02*
X358661Y55512D01*
X356211Y48819D02*
X361661Y54269D01*
X352427Y80250D02*
X361661Y71016D01*
X349942Y74250D02*
X355661Y68530D01*
X351185Y77250D02*
X358661Y69773D01*
X361661Y54269D02*
Y71016D01*
X355661Y56754D02*
Y68530D01*
X358661Y55512D02*
Y69773D01*
X340744Y31554D02*
X350282Y22017D01*
X340744Y31554D02*
Y42371D01*
X330745Y31554D02*
X340282Y22017D01*
X330745Y31554D02*
Y42371D01*
X360282Y16985D02*
Y22016D01*
X350282Y16986D02*
Y22017D01*
X340282Y16986D02*
Y22017D01*
X310124Y86342D02*
Y96748D01*
Y86342D02*
X319217Y77250D01*
X351185D01*
X317974Y74250D02*
X349942D01*
X283032Y91750D02*
Y96683D01*
Y91750D02*
X289032Y85750D01*
X306474D01*
X317974Y74250D01*
X337217Y96683D02*
X337282Y96748D01*
X337217Y87750D02*
Y96683D01*
X335217Y85750D02*
X337217Y87750D01*
X319474Y85750D02*
X335217D01*
X320460Y80250D02*
X352427D01*
X318217Y82492D02*
X320460Y80250D01*
X318217Y82492D02*
Y84492D01*
X319474Y85750D01*
X282967Y96748D02*
Y106000D01*
X310124Y96748D02*
Y106000D01*
X337282Y96748D02*
Y106000D01*
X319124Y96748D02*
Y114417D01*
X346282Y96748D02*
Y109696D01*
X341561Y114417D02*
X346282Y109696D01*
X319124Y114417D02*
X341561D01*
X264217Y111750D02*
X266884Y114417D01*
X264217Y79750D02*
Y111750D01*
Y79750D02*
X272217Y71750D01*
X296217Y47750D02*
X301597Y42370D01*
X306768D01*
X266884Y114417D02*
X291967D01*
X319124D01*
X291967Y96748D02*
Y114417D01*
X272217Y71750D02*
X288998D01*
X296217Y64530D01*
Y47750D02*
Y64530D01*
X282967Y136000D02*
Y148795D01*
X310124Y136000D02*
Y148795D01*
X337282Y136000D02*
Y148795D01*
X350745Y31554D02*
Y42371D01*
Y31554D02*
X360282Y22016D01*
X291967Y148795D02*
Y180257D01*
X230898Y216054D02*
X250702Y196250D01*
X346282Y148795D02*
Y155842D01*
X343473Y158651D02*
X346282Y155842D01*
X319124Y148795D02*
Y155842D01*
X316315Y158651D02*
X319124Y155842D01*
X317558Y161651D02*
X320558Y158651D01*
X343473D01*
X297967Y166000D02*
Y182742D01*
Y166000D02*
X302315Y161651D01*
X317558D01*
X294967Y164757D02*
X301073Y158651D01*
X316315D01*
X294967Y164757D02*
Y181500D01*
X283467Y193000D02*
X294967Y181500D01*
X284709Y196000D02*
X297967Y182742D01*
X282224Y190000D02*
X291967Y180257D01*
X251000Y196000D02*
X284709D01*
X249709Y193000D02*
X283467D01*
X229655Y213054D02*
X249709Y193000D01*
X248467Y190000D02*
X282224D01*
X228412Y210054D02*
X248467Y190000D01*
X137119Y194849D02*
Y206957D01*
X140217Y210054D01*
X228412D01*
X127119Y194849D02*
Y206652D01*
X130521Y210054D01*
X135974D01*
X138974Y213054D01*
X229655D01*
X117119Y206652D02*
X120521Y210054D01*
X117119Y194849D02*
Y206652D01*
X120521Y210054D02*
X126279D01*
X129279Y213054D01*
X134732D01*
X137732Y216054D01*
X230898D01*
D17*
X151363Y366833D02*
X162595D01*
X170547Y358881D01*
X260065D01*
X295750Y34250D02*
X304217D01*
X293274Y31774D02*
X295750Y34250D01*
X293274Y23207D02*
Y31774D01*
X407863Y280817D02*
X414363Y287317D01*
X407863Y227956D02*
Y280817D01*
Y227956D02*
X413659Y222159D01*
X414363Y287317D02*
Y295018D01*
X412064Y297317D02*
X414363Y295018D01*
X406247Y297317D02*
X412064D01*
X419863Y285018D02*
Y345518D01*
X413659Y278814D02*
X419863Y285018D01*
X413659Y222159D02*
Y278814D01*
X410818Y219318D02*
X413659Y222159D01*
X410818Y205427D02*
Y219318D01*
X370124Y350518D02*
Y384668D01*
Y301657D02*
Y350518D01*
X414863D01*
X419863Y345518D01*
X46898Y318053D02*
Y326018D01*
X42363Y313518D02*
X46898Y318053D01*
X21863Y313518D02*
X42363D01*
X18434Y310089D02*
X21863Y313518D01*
X18434Y305676D02*
Y310089D01*
X18363Y305604D02*
X18434Y305676D01*
X18363Y295018D02*
Y305604D01*
X361799Y384668D02*
X370124D01*
X356783Y389684D02*
X361799Y384668D01*
X144404Y12849D02*
Y19974D01*
X131341Y9784D02*
X141340D01*
X144404Y12849D01*
X144365Y19974D02*
Y27110D01*
X141301Y30174D02*
X144365Y27110D01*
X131302Y30174D02*
X141301D01*
X47119Y194849D02*
Y210597D01*
Y226345D01*
X315183Y389684D02*
X345183D01*
X315183Y380534D02*
Y389684D01*
X290065D02*
X315183D01*
X263747D02*
X290065D01*
X260065Y380534D02*
Y386002D01*
X263747Y389684D01*
X370124Y400416D02*
Y420101D01*
Y384668D02*
Y400416D01*
X345183Y389684D02*
X356783D01*
X47119Y226345D02*
Y237152D01*
X51217Y241250D01*
X217217D01*
X244717Y268750D01*
X337217D01*
X370124Y301657D01*
X306768Y42370D02*
X313855D01*
Y36579D02*
Y42370D01*
Y36579D02*
X316183Y34250D01*
X304217D02*
X306768Y36801D01*
Y42370D01*
X316183Y34250D02*
X318474D01*
X320744Y36520D01*
Y42370D01*
D18*
X57017Y19652D02*
X80056D01*
X47175Y29494D02*
X57017Y19652D01*
X47175Y29494D02*
Y41305D01*
X37771Y50709D02*
X47175Y41305D01*
X80056Y19652D02*
X80378Y19974D01*
X25868Y50709D02*
X37771D01*
X80378Y19974D02*
X100378D01*
X36363Y295018D02*
X47048D01*
X240253Y36187D02*
X253235Y23205D01*
X184931Y36187D02*
X240253D01*
X142179Y75753D02*
X151467Y66465D01*
Y47906D02*
Y66465D01*
Y47906D02*
X164365Y35007D01*
X166034Y55085D02*
X184931Y36187D01*
X166034Y55085D02*
Y72291D01*
X148594Y89730D02*
X166034Y72291D01*
X126270Y89730D02*
X148594D01*
X120364Y83825D02*
X126270Y89730D01*
X120364Y76253D02*
Y83825D01*
X119864Y75753D02*
X120364Y76253D01*
X58287Y118981D02*
Y141928D01*
Y75753D02*
Y118981D01*
X45937Y154278D02*
Y168481D01*
Y154278D02*
X58287Y141928D01*
Y75753D02*
X89075D01*
X119864D01*
X144404Y19974D02*
X164365D01*
X144365D02*
X144404D01*
X119864Y75753D02*
X142179D01*
X164365Y19974D02*
Y35007D01*
X32157Y168481D02*
X45937D01*
D19*
X37056Y326018D02*
Y330467D01*
X33005Y334518D02*
X37056Y330467D01*
X17563Y334518D02*
X33005D01*
X7470Y324425D02*
X17563Y334518D01*
X7470Y193559D02*
Y324425D01*
X201472Y168481D02*
X214601D01*
X81160D02*
X201472D01*
X389204Y108238D02*
X401094D01*
X408030Y99238D02*
X412703Y94565D01*
X401094Y99238D02*
X408030D01*
X406376Y108238D02*
X412703Y114565D01*
X401094Y108238D02*
X406376D01*
X373353Y92387D02*
X389204Y108238D01*
X373353Y74033D02*
Y92387D01*
Y54033D02*
X382000D01*
X388217Y60250D01*
Y91565D01*
X395890Y99238D01*
X401094D01*
D20*
X7470Y193559D02*
X12679Y188349D01*
X19172D01*
X41760Y177919D02*
X71721D01*
X31331Y188349D02*
X41760Y177919D01*
X19172Y188349D02*
X31331D01*
X71721Y177919D02*
X81160Y168481D01*
D21*
X315183Y358881D02*
Y380534D01*
Y343133D02*
Y358881D01*
X260065Y343133D02*
Y358881D01*
Y380534D01*
D22*
X383471Y195298D02*
D03*
X226778D02*
D03*
X293274Y23207D02*
D03*
X373353Y54033D02*
D03*
X236896D02*
D03*
X273274Y23207D02*
D03*
X413363Y112018D02*
D03*
X25868Y70709D02*
D03*
D23*
X310124Y136000D02*
D03*
X337282D02*
D03*
X282967D02*
D03*
D24*
X300124D02*
D03*
Y106000D02*
D03*
X310124D02*
D03*
X337282D02*
D03*
X327282D02*
D03*
Y136000D02*
D03*
X282967Y106000D02*
D03*
X272967D02*
D03*
Y136000D02*
D03*
D25*
X270065Y358881D02*
D03*
X325184D02*
D03*
X37119Y210597D02*
D03*
X400818Y205427D02*
D03*
X380124Y400416D02*
D03*
D26*
X260065Y358881D02*
D03*
X315183D02*
D03*
X47119Y210597D02*
D03*
X410818Y205427D02*
D03*
X370124Y400416D02*
D03*
D27*
X275065Y343133D02*
D03*
X260065D02*
D03*
X330184D02*
D03*
X315183D02*
D03*
X32119Y226345D02*
D03*
X47119D02*
D03*
X413659Y222159D02*
D03*
X398659D02*
D03*
X214601Y153481D02*
D03*
Y168481D02*
D03*
X370124Y384668D02*
D03*
X385124D02*
D03*
X17196Y168481D02*
D03*
X32196D02*
D03*
D28*
X270124Y420101D02*
D03*
X290124D02*
D03*
X310124D02*
D03*
X330124D02*
D03*
X350124D02*
D03*
X360124D02*
D03*
X370124D02*
D03*
X340124D02*
D03*
X320124D02*
D03*
X300124D02*
D03*
X280124D02*
D03*
X260124D02*
D03*
X250124D02*
D03*
X230124D02*
D03*
X240124D02*
D03*
D29*
X380124D02*
D03*
D30*
X320282Y16986D02*
D03*
X330282D02*
D03*
X340282D02*
D03*
X350282D02*
D03*
D31*
X360282Y16985D02*
D03*
X310282Y16986D02*
D03*
D32*
X373353Y74033D02*
D03*
X236896D02*
D03*
X413363Y92018D02*
D03*
X25868Y50709D02*
D03*
D33*
X253274Y23207D02*
D03*
D34*
X232290Y164270D02*
D03*
X377959D02*
D03*
Y18600D02*
D03*
X232290D02*
D03*
X182724Y103229D02*
D03*
X64724Y166229D02*
D03*
D35*
X136863Y354333D02*
D03*
X156863Y379333D02*
D03*
X136863D02*
D03*
X156863Y354333D02*
D03*
X65363D02*
D03*
X85363Y379333D02*
D03*
X65363D02*
D03*
X85363Y354333D02*
D03*
X100363Y320018D02*
D03*
X120363Y345018D02*
D03*
X100363D02*
D03*
X120363Y320018D02*
D03*
X100363Y387916D02*
D03*
X120363Y412916D02*
D03*
X100363D02*
D03*
X120363Y387916D02*
D03*
D36*
X19685Y19685D02*
D03*
X413386D02*
D03*
Y413386D02*
D03*
X19685D02*
D03*
D37*
X406247Y297317D02*
D03*
Y307317D02*
D03*
Y317317D02*
D03*
D38*
Y327317D02*
D03*
D39*
X119903Y60753D02*
D03*
X58326D02*
D03*
X89114D02*
D03*
D40*
X119903Y75753D02*
D03*
X58326D02*
D03*
X89114D02*
D03*
D41*
X80378Y19974D02*
D03*
X100378D02*
D03*
X164404D02*
D03*
X144404D02*
D03*
D42*
X46898Y326018D02*
D03*
X37056D02*
D03*
D43*
X47119Y194849D02*
D03*
X57119D02*
D03*
X67119D02*
D03*
X77119D02*
D03*
X87119D02*
D03*
X97119D02*
D03*
X107119D02*
D03*
X117119D02*
D03*
X127119D02*
D03*
X137119D02*
D03*
X147119D02*
D03*
X157119D02*
D03*
X167119D02*
D03*
X177119D02*
D03*
X187119D02*
D03*
X47119Y294849D02*
D03*
X57119D02*
D03*
X67119D02*
D03*
X77119D02*
D03*
X87119D02*
D03*
X97119D02*
D03*
X107119D02*
D03*
X117119D02*
D03*
X127119D02*
D03*
X137119D02*
D03*
X147119D02*
D03*
X157119D02*
D03*
X167119D02*
D03*
X177119D02*
D03*
D44*
X187119D02*
D03*
D45*
X201472Y168481D02*
D03*
Y100977D02*
D03*
X45976D02*
D03*
D46*
Y168481D02*
D03*
M02*
