G04*
G04 #@! TF.GenerationSoftware,Altium Limited,Altium Designer,18.0.7 (293)*
G04*
G04 Layer_Color=16711935*
%FSLAX25Y25*%
%MOIN*%
G70*
G01*
G75*
%ADD10R,0.04331X0.05894*%
%ADD11R,0.03162X0.06902*%
%ADD12R,0.07300X0.05800*%
%ADD13R,0.05894X0.04331*%
%ADD14R,0.06300X0.04737*%
%ADD15R,0.08800X0.09855*%
%ADD16R,0.04331X0.04331*%
%ADD17R,0.04737X0.06300*%
%ADD18C,0.10642*%
%ADD19R,0.06800X0.09800*%
%ADD20O,0.06800X0.09800*%
%ADD21O,0.07800X0.10800*%
%ADD22R,0.07800X0.10800*%
%ADD23C,0.07800*%
%ADD24O,0.06942X0.10642*%
%ADD25R,0.06942X0.10642*%
%ADD26C,0.07887*%
%ADD27R,0.07887X0.07887*%
%ADD28R,0.10642X0.10642*%
%ADD29R,0.10642X0.10642*%
%ADD30C,0.14580*%
%ADD31C,0.08300*%
%ADD32C,0.24422*%
%ADD33O,0.10642X0.07887*%
%ADD34R,0.10642X0.07887*%
%ADD35O,0.10800X0.07800*%
%ADD36R,0.10800X0.07800*%
%ADD37O,0.09461X0.12611*%
%ADD38O,0.05524X0.07887*%
%ADD39O,0.06942X0.10642*%
%ADD40R,0.06942X0.10642*%
%ADD41O,0.08300X0.09800*%
%ADD42R,0.08300X0.09800*%
D10*
X70863Y366833D02*
D03*
X79863D02*
D03*
X105863Y332518D02*
D03*
X114863D02*
D03*
X105863Y400416D02*
D03*
X114863D02*
D03*
X142363Y366833D02*
D03*
X151363D02*
D03*
X310684Y369707D02*
D03*
X319684D02*
D03*
X255566D02*
D03*
X264565D02*
D03*
X291967Y148795D02*
D03*
X282967D02*
D03*
X346282D02*
D03*
X337282D02*
D03*
X319124D02*
D03*
X310124D02*
D03*
X291967Y96748D02*
D03*
X282967D02*
D03*
X346282D02*
D03*
X337282D02*
D03*
X319124D02*
D03*
X310124D02*
D03*
X29925Y118981D02*
D03*
X38925D02*
D03*
X29925Y134729D02*
D03*
X38925D02*
D03*
X29925Y150477D02*
D03*
X38925D02*
D03*
D11*
X320744Y63630D02*
D03*
X325745D02*
D03*
X330745D02*
D03*
X335745D02*
D03*
X340744D02*
D03*
X345744D02*
D03*
X350745D02*
D03*
X320744Y42370D02*
D03*
X325745D02*
D03*
X330745D02*
D03*
X335745D02*
D03*
X340744D02*
D03*
X345744D02*
D03*
X350745D02*
D03*
X260065Y380534D02*
D03*
X265065D02*
D03*
X295065Y401794D02*
D03*
Y380534D02*
D03*
X290065D02*
D03*
X285065D02*
D03*
X280065D02*
D03*
X275065D02*
D03*
X270065D02*
D03*
X290065Y401794D02*
D03*
X285065D02*
D03*
X280065D02*
D03*
X275065D02*
D03*
X270065D02*
D03*
X265065D02*
D03*
X260065D02*
D03*
X315183Y380534D02*
D03*
X320183D02*
D03*
X350184Y401794D02*
D03*
Y380534D02*
D03*
X345183D02*
D03*
X340183D02*
D03*
X335184D02*
D03*
X330184D02*
D03*
X325184D02*
D03*
X345183Y401794D02*
D03*
X340183D02*
D03*
X335184D02*
D03*
X330184D02*
D03*
X325184D02*
D03*
X320183D02*
D03*
X315183D02*
D03*
D12*
X24735Y181849D02*
D03*
Y194849D02*
D03*
X325183Y309581D02*
D03*
Y322582D02*
D03*
D13*
X258795Y326581D02*
D03*
Y317581D02*
D03*
D14*
X313855Y51370D02*
D03*
Y42370D02*
D03*
X306768Y51370D02*
D03*
Y42370D02*
D03*
X399863Y107518D02*
D03*
Y98518D02*
D03*
D15*
X131341Y30174D02*
D03*
X113341D02*
D03*
X131341Y9774D02*
D03*
X113341D02*
D03*
X36363Y295018D02*
D03*
X18363D02*
D03*
D16*
X15725Y134729D02*
D03*
X23599D02*
D03*
X15725Y150477D02*
D03*
X23599D02*
D03*
X15725Y118981D02*
D03*
X23599D02*
D03*
D17*
X18434Y305676D02*
D03*
X27434D02*
D03*
D18*
X383471Y195298D02*
D03*
X226778D02*
D03*
X293274Y23207D02*
D03*
X373353Y54033D02*
D03*
X236896D02*
D03*
X273274Y23207D02*
D03*
X413363Y112018D02*
D03*
X25868Y70709D02*
D03*
D19*
X310124Y136000D02*
D03*
X337282D02*
D03*
X282967D02*
D03*
D20*
X300124D02*
D03*
Y106000D02*
D03*
X310124D02*
D03*
X337282D02*
D03*
X327282D02*
D03*
Y136000D02*
D03*
X282967Y106000D02*
D03*
X272967D02*
D03*
Y136000D02*
D03*
D21*
X270065Y358881D02*
D03*
X325184D02*
D03*
X37119Y210597D02*
D03*
X400818Y205427D02*
D03*
X380124Y400416D02*
D03*
D22*
X260065Y358881D02*
D03*
X315183D02*
D03*
X47119Y210597D02*
D03*
X410818Y205427D02*
D03*
X370124Y400416D02*
D03*
D23*
X275065Y343133D02*
D03*
X260065D02*
D03*
X330184D02*
D03*
X315183D02*
D03*
X32119Y226345D02*
D03*
X47119D02*
D03*
X413659Y222159D02*
D03*
X398659D02*
D03*
X214601Y153481D02*
D03*
Y168481D02*
D03*
X370124Y384668D02*
D03*
X385124D02*
D03*
X17196Y168481D02*
D03*
X32196D02*
D03*
D24*
X270124Y420101D02*
D03*
X290124D02*
D03*
X310124D02*
D03*
X330124D02*
D03*
X350124D02*
D03*
X360124D02*
D03*
X370124D02*
D03*
X340124D02*
D03*
X320124D02*
D03*
X300124D02*
D03*
X280124D02*
D03*
X260124D02*
D03*
X250124D02*
D03*
X230124D02*
D03*
X240124D02*
D03*
D25*
X380124D02*
D03*
D26*
X320282Y16986D02*
D03*
X330282D02*
D03*
X340282D02*
D03*
X350282D02*
D03*
D27*
X360282Y16985D02*
D03*
X310282Y16986D02*
D03*
D28*
X373353Y74033D02*
D03*
X236896D02*
D03*
X413363Y92018D02*
D03*
X25868Y50709D02*
D03*
D29*
X253274Y23207D02*
D03*
D30*
X232290Y164270D02*
D03*
X377959D02*
D03*
Y18600D02*
D03*
X232290D02*
D03*
X182724Y103229D02*
D03*
X64724Y166229D02*
D03*
D31*
X136863Y354333D02*
D03*
X156863Y379333D02*
D03*
X136863D02*
D03*
X156863Y354333D02*
D03*
X65363D02*
D03*
X85363Y379333D02*
D03*
X65363D02*
D03*
X85363Y354333D02*
D03*
X100363Y320018D02*
D03*
X120363Y345018D02*
D03*
X100363D02*
D03*
X120363Y320018D02*
D03*
X100363Y387916D02*
D03*
X120363Y412916D02*
D03*
X100363D02*
D03*
X120363Y387916D02*
D03*
D32*
X19685Y19685D02*
D03*
X413386D02*
D03*
Y413386D02*
D03*
X19685D02*
D03*
D33*
X406247Y297317D02*
D03*
Y307317D02*
D03*
Y317317D02*
D03*
D34*
Y327317D02*
D03*
D35*
X119903Y60753D02*
D03*
X58326D02*
D03*
X89114D02*
D03*
D36*
X119903Y75753D02*
D03*
X58326D02*
D03*
X89114D02*
D03*
D37*
X80378Y19974D02*
D03*
X100378D02*
D03*
X164404D02*
D03*
X144404D02*
D03*
D38*
X46898Y326018D02*
D03*
X37056D02*
D03*
D39*
X47119Y194849D02*
D03*
X57119D02*
D03*
X67119D02*
D03*
X77119D02*
D03*
X87119D02*
D03*
X97119D02*
D03*
X107119D02*
D03*
X117119D02*
D03*
X127119D02*
D03*
X137119D02*
D03*
X147119D02*
D03*
X157119D02*
D03*
X167119D02*
D03*
X177119D02*
D03*
X187119D02*
D03*
X47119Y294849D02*
D03*
X57119D02*
D03*
X67119D02*
D03*
X77119D02*
D03*
X87119D02*
D03*
X97119D02*
D03*
X107119D02*
D03*
X117119D02*
D03*
X127119D02*
D03*
X137119D02*
D03*
X147119D02*
D03*
X157119D02*
D03*
X167119D02*
D03*
X177119D02*
D03*
D40*
X187119D02*
D03*
D41*
X201472Y168481D02*
D03*
Y100977D02*
D03*
X45976D02*
D03*
D42*
Y168481D02*
D03*
M02*
