M48
;Layer_Color=9474304
;FILE_FORMAT=2:5
INCH,LZ
;TYPE=PLATED
T1F00S00C0.03100
T2F00S00C0.03150
T3F00S00C0.03200
T4F00S00C0.03400
T5F00S00C0.03937
T6F00S00C0.04094
T7F00S00C0.04724
T8F00S00C0.07874
T9F00S00C0.11811
%
T01
X0214601Y0153481
Y0168481
X0272967Y0136
X0282967
X0300124
X0310124
X0327282
X0337282
Y0106
X0327282
X0310124
X0300124
X0282967
X0272967
X0032196Y0168481
X0017196
X0032119Y0226345
X0047119
X0065363Y0354333
X0085363
X0100363Y0345018
X0120363
Y0320018
X0100363
X0136863Y0354333
X0156863
X0260065Y0343133
X0275065
X0315183
X0330184
X0398659Y0222159
X0413659
X0385124Y0384668
X0370124
X0156863Y0379333
X0136863
X0120363Y0387916
X0100363
X0085363Y0379333
X0065363
X0100363Y0412916
X0120363
T02
X0037056Y0326018
X0046898
T03
X0400818Y0205427
X0410818
X0119903Y0075753
Y0060753
X0089114
Y0075753
X0058326
Y0060753
X0047119Y0210597
X0037119
X0260065Y0358881
X0270065
X0315183
X0325184
X0370124Y0400416
X0380124
T04
X0201472Y0100977
Y0168481
X0045976
Y0100977
X0370124Y0420101
X0380124
X0360124
X0350124
X0340124
X0330124
X0320124
X0310124
X0300124
X0290124
X0280124
X0270124
X0260124
X0250124
X0240124
X0230124
T05
X0310282Y0016986
X0320282
X0330282
X0340282
X0350282
X0360282Y0016985
X0406247Y0297317
Y0307317
Y0317317
Y0327317
T06
X0057119Y0194849
X0067119
X0077119
X0087119
X0097119
X0107119
X0117119
X0127119
X0137119
X0147119
X0157119
X0167119
X0177119
X0187119
X0047119
Y0294849
X0057119
X0067119
X0077119
X0087119
X0097119
X0107119
X0117119
X0127119
X0137119
X0147119
X0157119
X0167119
X0177119
X0187119
T07
X0025868Y0050709
X0080378Y0019974
X0100378
X0144404
X0164404
X0253274Y0023207
X0273274
X0293274
X0236896Y0054033
X0373353
Y0074033
X0413363Y0092018
Y0112018
X0236896Y0074033
X0025868Y0070709
T08
X0383471Y0195298
X0226778
T09
X0019685Y0019685
X023229Y00186
X0377959
X0413386Y0019685
X0377959Y016427
X023229
X0182724Y0103229
X0064724Y0166229
X0413386Y0413386
X0019685
M30
